<?xml version="1.0" encoding="utf-8" standalone="no"?>
<!DOCTYPE svg PUBLIC "-//W3C//DTD SVG 1.1//EN"
  "http://www.w3.org/Graphics/SVG/1.1/DTD/svg11.dtd">
<!-- Created with matplotlib (https://matplotlib.org/) -->
<svg height="242.1pt" version="1.1" viewBox="0 0 458.1 242.1" width="458.1pt" xmlns="http://www.w3.org/2000/svg" xmlns:xlink="http://www.w3.org/1999/xlink">
 <metadata>
  <rdf:RDF xmlns:cc="http://creativecommons.org/ns#" xmlns:dc="http://purl.org/dc/elements/1.1/" xmlns:rdf="http://www.w3.org/1999/02/22-rdf-syntax-ns#">
   <cc:Work>
    <dc:type rdf:resource="http://purl.org/dc/dcmitype/StillImage"/>
    <dc:date>2022-01-27T20:27:56.088660</dc:date>
    <dc:format>image/svg+xml</dc:format>
    <dc:creator>
     <cc:Agent>
      <dc:title>Matplotlib v3.3.4, https://matplotlib.org/</dc:title>
     </cc:Agent>
    </dc:creator>
   </cc:Work>
  </rdf:RDF>
 </metadata>
 <defs>
  <style type="text/css">*{stroke-linecap:butt;stroke-linejoin:round;}</style>
 </defs>
 <g id="figure_1">
  <g id="patch_1">
   <path d="M 0 242.1 
L 458.1 242.1 
L 458.1 0 
L 0 0 
z
" style="fill:#ffffff;"/>
  </g>
  <g id="axes_1">
   <g id="patch_2">
    <path d="M 64.39185 178.7149 
L 429.03 178.7149 
L 429.03 16.92 
L 64.39185 16.92 
z
" style="fill:#ffffff;"/>
   </g>
   <g id="matplotlib.axis_1">
    <g id="xtick_1">
     <g id="line2d_1">
      <defs>
       <path d="M 0 0 
L 0 6 
" id="mf4fc0b5039" style="stroke:#262626;stroke-width:1.25;"/>
      </defs>
      <g>
       <use style="fill:#262626;stroke:#262626;stroke-width:1.25;" x="64.39185" xlink:href="#mf4fc0b5039" y="178.7149"/>
      </g>
     </g>
     <g id="line2d_2">
      <defs>
       <path d="M 0 0 
L 0 -6 
" id="mfba2387f03" style="stroke:#262626;stroke-width:1.25;"/>
      </defs>
      <g>
       <use style="fill:#262626;stroke:#262626;stroke-width:1.25;" x="64.39185" xlink:href="#mfba2387f03" y="16.92"/>
      </g>
     </g>
     <g id="text_1">
      <!-- Hydropower -->
      <g style="fill:#262626;" transform="translate(34.742553 196.088494)scale(0.11 -0.11)">
       <defs>
        <path d="M 8.015625 0 
L 8.015625 71.578125 
L 17.484375 71.578125 
L 17.484375 42.1875 
L 54.6875 42.1875 
L 54.6875 71.578125 
L 64.15625 71.578125 
L 64.15625 0 
L 54.6875 0 
L 54.6875 33.734375 
L 17.484375 33.734375 
L 17.484375 0 
z
" id="ArialMT-72"/>
        <path d="M 6.203125 -19.96875 
L 5.21875 -11.71875 
Q 8.109375 -12.5 10.25 -12.5 
Q 13.1875 -12.5 14.9375 -11.515625 
Q 16.703125 -10.546875 17.828125 -8.796875 
Q 18.65625 -7.46875 20.515625 -2.25 
Q 20.75 -1.515625 21.296875 -0.09375 
L 1.609375 51.859375 
L 11.078125 51.859375 
L 21.875 21.828125 
Q 23.96875 16.109375 25.640625 9.8125 
Q 27.15625 15.875 29.25 21.625 
L 40.328125 51.859375 
L 49.125 51.859375 
L 29.390625 -0.875 
Q 26.21875 -9.421875 24.46875 -12.640625 
Q 22.125 -17 19.09375 -19.015625 
Q 16.0625 -21.046875 11.859375 -21.046875 
Q 9.328125 -21.046875 6.203125 -19.96875 
z
" id="ArialMT-121"/>
        <path d="M 40.234375 0 
L 40.234375 6.546875 
Q 35.296875 -1.171875 25.734375 -1.171875 
Q 19.53125 -1.171875 14.328125 2.25 
Q 9.125 5.671875 6.265625 11.796875 
Q 3.421875 17.921875 3.421875 25.875 
Q 3.421875 33.640625 6 39.96875 
Q 8.59375 46.296875 13.765625 49.65625 
Q 18.953125 53.03125 25.34375 53.03125 
Q 30.03125 53.03125 33.6875 51.046875 
Q 37.359375 49.078125 39.65625 45.90625 
L 39.65625 71.578125 
L 48.390625 71.578125 
L 48.390625 0 
z
M 12.453125 25.875 
Q 12.453125 15.921875 16.640625 10.984375 
Q 20.84375 6.0625 26.5625 6.0625 
Q 32.328125 6.0625 36.34375 10.765625 
Q 40.375 15.484375 40.375 25.140625 
Q 40.375 35.796875 36.265625 40.765625 
Q 32.171875 45.75 26.171875 45.75 
Q 20.3125 45.75 16.375 40.96875 
Q 12.453125 36.1875 12.453125 25.875 
z
" id="ArialMT-100"/>
        <path d="M 6.5 0 
L 6.5 51.859375 
L 14.40625 51.859375 
L 14.40625 44 
Q 17.4375 49.515625 20 51.265625 
Q 22.5625 53.03125 25.640625 53.03125 
Q 30.078125 53.03125 34.671875 50.203125 
L 31.640625 42.046875 
Q 28.421875 43.953125 25.203125 43.953125 
Q 22.3125 43.953125 20.015625 42.21875 
Q 17.71875 40.484375 16.75 37.40625 
Q 15.28125 32.71875 15.28125 27.15625 
L 15.28125 0 
z
" id="ArialMT-114"/>
        <path d="M 3.328125 25.921875 
Q 3.328125 40.328125 11.328125 47.265625 
Q 18.015625 53.03125 27.640625 53.03125 
Q 38.328125 53.03125 45.109375 46.015625 
Q 51.90625 39.015625 51.90625 26.65625 
Q 51.90625 16.65625 48.90625 10.90625 
Q 45.90625 5.171875 40.15625 2 
Q 34.421875 -1.171875 27.640625 -1.171875 
Q 16.75 -1.171875 10.03125 5.8125 
Q 3.328125 12.796875 3.328125 25.921875 
z
M 12.359375 25.921875 
Q 12.359375 15.96875 16.703125 11.015625 
Q 21.046875 6.0625 27.640625 6.0625 
Q 34.1875 6.0625 38.53125 11.03125 
Q 42.875 16.015625 42.875 26.21875 
Q 42.875 35.84375 38.5 40.796875 
Q 34.125 45.75 27.640625 45.75 
Q 21.046875 45.75 16.703125 40.8125 
Q 12.359375 35.890625 12.359375 25.921875 
z
" id="ArialMT-111"/>
        <path d="M 6.59375 -19.875 
L 6.59375 51.859375 
L 14.59375 51.859375 
L 14.59375 45.125 
Q 17.4375 49.078125 21 51.046875 
Q 24.5625 53.03125 29.640625 53.03125 
Q 36.28125 53.03125 41.359375 49.609375 
Q 46.4375 46.1875 49.015625 39.953125 
Q 51.609375 33.734375 51.609375 26.3125 
Q 51.609375 18.359375 48.75 11.984375 
Q 45.90625 5.609375 40.453125 2.21875 
Q 35.015625 -1.171875 29 -1.171875 
Q 24.609375 -1.171875 21.109375 0.6875 
Q 17.625 2.546875 15.375 5.375 
L 15.375 -19.875 
z
M 14.546875 25.640625 
Q 14.546875 15.625 18.59375 10.84375 
Q 22.65625 6.0625 28.421875 6.0625 
Q 34.28125 6.0625 38.453125 11.015625 
Q 42.625 15.96875 42.625 26.375 
Q 42.625 36.28125 38.546875 41.203125 
Q 34.46875 46.140625 28.8125 46.140625 
Q 23.1875 46.140625 18.859375 40.890625 
Q 14.546875 35.640625 14.546875 25.640625 
z
" id="ArialMT-112"/>
        <path d="M 16.15625 0 
L 0.296875 51.859375 
L 9.375 51.859375 
L 17.625 21.921875 
L 20.703125 10.796875 
Q 20.90625 11.625 23.390625 21.484375 
L 31.640625 51.859375 
L 40.671875 51.859375 
L 48.4375 21.78125 
L 51.03125 11.859375 
L 54 21.875 
L 62.890625 51.859375 
L 71.4375 51.859375 
L 55.21875 0 
L 46.09375 0 
L 37.84375 31.0625 
L 35.84375 39.890625 
L 25.34375 0 
z
" id="ArialMT-119"/>
        <path d="M 42.09375 16.703125 
L 51.171875 15.578125 
Q 49.03125 7.625 43.21875 3.21875 
Q 37.40625 -1.171875 28.375 -1.171875 
Q 17 -1.171875 10.328125 5.828125 
Q 3.65625 12.84375 3.65625 25.484375 
Q 3.65625 38.578125 10.390625 45.796875 
Q 17.140625 53.03125 27.875 53.03125 
Q 38.28125 53.03125 44.875 45.953125 
Q 51.46875 38.875 51.46875 26.03125 
Q 51.46875 25.25 51.421875 23.6875 
L 12.75 23.6875 
Q 13.234375 15.140625 17.578125 10.59375 
Q 21.921875 6.0625 28.421875 6.0625 
Q 33.25 6.0625 36.671875 8.59375 
Q 40.09375 11.140625 42.09375 16.703125 
z
M 13.234375 30.90625 
L 42.1875 30.90625 
Q 41.609375 37.453125 38.875 40.71875 
Q 34.671875 45.796875 27.984375 45.796875 
Q 21.921875 45.796875 17.796875 41.75 
Q 13.671875 37.703125 13.234375 30.90625 
z
" id="ArialMT-101"/>
       </defs>
       <use xlink:href="#ArialMT-72"/>
       <use x="72.216797" xlink:href="#ArialMT-121"/>
       <use x="122.216797" xlink:href="#ArialMT-100"/>
       <use x="177.832031" xlink:href="#ArialMT-114"/>
       <use x="211.132812" xlink:href="#ArialMT-111"/>
       <use x="266.748047" xlink:href="#ArialMT-112"/>
       <use x="322.363281" xlink:href="#ArialMT-111"/>
       <use x="377.978516" xlink:href="#ArialMT-119"/>
       <use x="450.195312" xlink:href="#ArialMT-101"/>
       <use x="505.810547" xlink:href="#ArialMT-114"/>
      </g>
     </g>
    </g>
    <g id="xtick_2">
     <g id="line2d_3">
      <g>
       <use style="fill:#262626;stroke:#262626;stroke-width:1.25;" x="155.551388" xlink:href="#mf4fc0b5039" y="178.7149"/>
      </g>
     </g>
     <g id="line2d_4">
      <g>
       <use style="fill:#262626;stroke:#262626;stroke-width:1.25;" x="155.551388" xlink:href="#mfba2387f03" y="16.92"/>
      </g>
     </g>
     <g id="text_2">
      <!-- Environment -->
      <g style="fill:#262626;" transform="translate(124.677481 196.088494)scale(0.11 -0.11)">
       <defs>
        <path d="M 7.90625 0 
L 7.90625 71.578125 
L 59.671875 71.578125 
L 59.671875 63.140625 
L 17.390625 63.140625 
L 17.390625 41.21875 
L 56.984375 41.21875 
L 56.984375 32.8125 
L 17.390625 32.8125 
L 17.390625 8.453125 
L 61.328125 8.453125 
L 61.328125 0 
z
" id="ArialMT-69"/>
        <path d="M 6.59375 0 
L 6.59375 51.859375 
L 14.5 51.859375 
L 14.5 44.484375 
Q 20.21875 53.03125 31 53.03125 
Q 35.6875 53.03125 39.625 51.34375 
Q 43.5625 49.65625 45.515625 46.921875 
Q 47.46875 44.1875 48.25 40.4375 
Q 48.734375 37.984375 48.734375 31.890625 
L 48.734375 0 
L 39.9375 0 
L 39.9375 31.546875 
Q 39.9375 36.921875 38.90625 39.578125 
Q 37.890625 42.234375 35.28125 43.8125 
Q 32.671875 45.40625 29.15625 45.40625 
Q 23.53125 45.40625 19.453125 41.84375 
Q 15.375 38.28125 15.375 28.328125 
L 15.375 0 
z
" id="ArialMT-110"/>
        <path d="M 21 0 
L 1.265625 51.859375 
L 10.546875 51.859375 
L 21.6875 20.796875 
Q 23.484375 15.765625 25 10.359375 
Q 26.171875 14.453125 28.265625 20.21875 
L 39.796875 51.859375 
L 48.828125 51.859375 
L 29.203125 0 
z
" id="ArialMT-118"/>
        <path d="M 6.640625 61.46875 
L 6.640625 71.578125 
L 15.4375 71.578125 
L 15.4375 61.46875 
z
M 6.640625 0 
L 6.640625 51.859375 
L 15.4375 51.859375 
L 15.4375 0 
z
" id="ArialMT-105"/>
        <path d="M 6.59375 0 
L 6.59375 51.859375 
L 14.453125 51.859375 
L 14.453125 44.578125 
Q 16.890625 48.390625 20.9375 50.703125 
Q 25 53.03125 30.171875 53.03125 
Q 35.9375 53.03125 39.625 50.640625 
Q 43.3125 48.25 44.828125 43.953125 
Q 50.984375 53.03125 60.84375 53.03125 
Q 68.5625 53.03125 72.703125 48.75 
Q 76.859375 44.484375 76.859375 35.59375 
L 76.859375 0 
L 68.109375 0 
L 68.109375 32.671875 
Q 68.109375 37.9375 67.25 40.25 
Q 66.40625 42.578125 64.15625 43.984375 
Q 61.921875 45.40625 58.890625 45.40625 
Q 53.421875 45.40625 49.796875 41.765625 
Q 46.1875 38.140625 46.1875 30.125 
L 46.1875 0 
L 37.40625 0 
L 37.40625 33.6875 
Q 37.40625 39.546875 35.25 42.46875 
Q 33.109375 45.40625 28.21875 45.40625 
Q 24.515625 45.40625 21.359375 43.453125 
Q 18.21875 41.5 16.796875 37.734375 
Q 15.375 33.984375 15.375 26.90625 
L 15.375 0 
z
" id="ArialMT-109"/>
        <path d="M 25.78125 7.859375 
L 27.046875 0.09375 
Q 23.34375 -0.6875 20.40625 -0.6875 
Q 15.625 -0.6875 12.984375 0.828125 
Q 10.359375 2.34375 9.28125 4.8125 
Q 8.203125 7.28125 8.203125 15.1875 
L 8.203125 45.015625 
L 1.765625 45.015625 
L 1.765625 51.859375 
L 8.203125 51.859375 
L 8.203125 64.703125 
L 16.9375 69.96875 
L 16.9375 51.859375 
L 25.78125 51.859375 
L 25.78125 45.015625 
L 16.9375 45.015625 
L 16.9375 14.703125 
Q 16.9375 10.9375 17.40625 9.859375 
Q 17.875 8.796875 18.921875 8.15625 
Q 19.96875 7.515625 21.921875 7.515625 
Q 23.390625 7.515625 25.78125 7.859375 
z
" id="ArialMT-116"/>
       </defs>
       <use xlink:href="#ArialMT-69"/>
       <use x="66.699219" xlink:href="#ArialMT-110"/>
       <use x="122.314453" xlink:href="#ArialMT-118"/>
       <use x="172.314453" xlink:href="#ArialMT-105"/>
       <use x="194.53125" xlink:href="#ArialMT-114"/>
       <use x="227.832031" xlink:href="#ArialMT-111"/>
       <use x="283.447266" xlink:href="#ArialMT-110"/>
       <use x="339.0625" xlink:href="#ArialMT-109"/>
       <use x="422.363281" xlink:href="#ArialMT-101"/>
       <use x="477.978516" xlink:href="#ArialMT-110"/>
       <use x="533.59375" xlink:href="#ArialMT-116"/>
      </g>
     </g>
    </g>
    <g id="xtick_3">
     <g id="line2d_5">
      <g>
       <use style="fill:#262626;stroke:#262626;stroke-width:1.25;" x="246.710925" xlink:href="#mf4fc0b5039" y="178.7149"/>
      </g>
     </g>
     <g id="line2d_6">
      <g>
       <use style="fill:#262626;stroke:#262626;stroke-width:1.25;" x="246.710925" xlink:href="#mfba2387f03" y="16.92"/>
      </g>
     </g>
     <g id="text_3">
      <!-- Recession -->
      <g style="fill:#262626;" transform="translate(221.0328 196.088494)scale(0.11 -0.11)">
       <defs>
        <path d="M 7.859375 0 
L 7.859375 71.578125 
L 39.59375 71.578125 
Q 49.171875 71.578125 54.140625 69.640625 
Q 59.125 67.71875 62.109375 62.828125 
Q 65.09375 57.953125 65.09375 52.046875 
Q 65.09375 44.4375 60.15625 39.203125 
Q 55.21875 33.984375 44.921875 32.5625 
Q 48.6875 30.765625 50.640625 29 
Q 54.78125 25.203125 58.5 19.484375 
L 70.953125 0 
L 59.03125 0 
L 49.5625 14.890625 
Q 45.40625 21.34375 42.71875 24.75 
Q 40.046875 28.171875 37.921875 29.53125 
Q 35.796875 30.90625 33.59375 31.453125 
Q 31.984375 31.78125 28.328125 31.78125 
L 17.328125 31.78125 
L 17.328125 0 
z
M 17.328125 39.984375 
L 37.703125 39.984375 
Q 44.1875 39.984375 47.84375 41.328125 
Q 51.515625 42.671875 53.421875 45.625 
Q 55.328125 48.578125 55.328125 52.046875 
Q 55.328125 57.125 51.640625 60.390625 
Q 47.953125 63.671875 39.984375 63.671875 
L 17.328125 63.671875 
z
" id="ArialMT-82"/>
        <path d="M 40.4375 19 
L 49.078125 17.875 
Q 47.65625 8.9375 41.8125 3.875 
Q 35.984375 -1.171875 27.484375 -1.171875 
Q 16.84375 -1.171875 10.375 5.78125 
Q 3.90625 12.75 3.90625 25.734375 
Q 3.90625 34.125 6.6875 40.421875 
Q 9.46875 46.734375 15.15625 49.875 
Q 20.84375 53.03125 27.546875 53.03125 
Q 35.984375 53.03125 41.359375 48.75 
Q 46.734375 44.484375 48.25 36.625 
L 39.703125 35.296875 
Q 38.484375 40.53125 35.375 43.15625 
Q 32.28125 45.796875 27.875 45.796875 
Q 21.234375 45.796875 17.078125 41.03125 
Q 12.9375 36.28125 12.9375 25.984375 
Q 12.9375 15.53125 16.9375 10.796875 
Q 20.953125 6.0625 27.390625 6.0625 
Q 32.5625 6.0625 36.03125 9.234375 
Q 39.5 12.40625 40.4375 19 
z
" id="ArialMT-99"/>
        <path d="M 3.078125 15.484375 
L 11.765625 16.84375 
Q 12.5 11.625 15.84375 8.84375 
Q 19.1875 6.0625 25.203125 6.0625 
Q 31.25 6.0625 34.171875 8.515625 
Q 37.109375 10.984375 37.109375 14.3125 
Q 37.109375 17.28125 34.515625 19 
Q 32.71875 20.171875 25.53125 21.96875 
Q 15.875 24.421875 12.140625 26.203125 
Q 8.40625 27.984375 6.46875 31.125 
Q 4.546875 34.28125 4.546875 38.09375 
Q 4.546875 41.546875 6.125 44.5 
Q 7.71875 47.46875 10.453125 49.421875 
Q 12.5 50.921875 16.03125 51.96875 
Q 19.578125 53.03125 23.640625 53.03125 
Q 29.734375 53.03125 34.34375 51.265625 
Q 38.96875 49.515625 41.15625 46.5 
Q 43.359375 43.5 44.1875 38.484375 
L 35.59375 37.3125 
Q 35.015625 41.3125 32.203125 43.546875 
Q 29.390625 45.796875 24.265625 45.796875 
Q 18.21875 45.796875 15.625 43.796875 
Q 13.03125 41.796875 13.03125 39.109375 
Q 13.03125 37.40625 14.109375 36.03125 
Q 15.1875 34.625 17.484375 33.6875 
Q 18.796875 33.203125 25.25 31.453125 
Q 34.578125 28.953125 38.25 27.359375 
Q 41.9375 25.78125 44.03125 22.75 
Q 46.140625 19.734375 46.140625 15.234375 
Q 46.140625 10.84375 43.578125 6.953125 
Q 41.015625 3.078125 36.171875 0.953125 
Q 31.34375 -1.171875 25.25 -1.171875 
Q 15.140625 -1.171875 9.84375 3.03125 
Q 4.546875 7.234375 3.078125 15.484375 
z
" id="ArialMT-115"/>
       </defs>
       <use xlink:href="#ArialMT-82"/>
       <use x="72.216797" xlink:href="#ArialMT-101"/>
       <use x="127.832031" xlink:href="#ArialMT-99"/>
       <use x="177.832031" xlink:href="#ArialMT-101"/>
       <use x="233.447266" xlink:href="#ArialMT-115"/>
       <use x="283.447266" xlink:href="#ArialMT-115"/>
       <use x="333.447266" xlink:href="#ArialMT-105"/>
       <use x="355.664062" xlink:href="#ArialMT-111"/>
       <use x="411.279297" xlink:href="#ArialMT-110"/>
      </g>
     </g>
    </g>
    <g id="xtick_4">
     <g id="line2d_7">
      <g>
       <use style="fill:#262626;stroke:#262626;stroke-width:1.25;" x="337.870463" xlink:href="#mf4fc0b5039" y="178.7149"/>
      </g>
     </g>
     <g id="line2d_8">
      <g>
       <use style="fill:#262626;stroke:#262626;stroke-width:1.25;" x="337.870463" xlink:href="#mfba2387f03" y="16.92"/>
      </g>
     </g>
     <g id="text_4">
      <!-- Sugar -->
      <g style="fill:#262626;" transform="translate(323.194916 196.222556)scale(0.11 -0.11)">
       <defs>
        <path d="M 4.5 23 
L 13.421875 23.78125 
Q 14.0625 18.40625 16.375 14.96875 
Q 18.703125 11.53125 23.578125 9.40625 
Q 28.46875 7.28125 34.578125 7.28125 
Q 39.984375 7.28125 44.140625 8.890625 
Q 48.296875 10.5 50.3125 13.296875 
Q 52.34375 16.109375 52.34375 19.4375 
Q 52.34375 22.796875 50.390625 25.3125 
Q 48.4375 27.828125 43.953125 29.546875 
Q 41.0625 30.671875 31.203125 33.03125 
Q 21.34375 35.40625 17.390625 37.5 
Q 12.25 40.1875 9.734375 44.15625 
Q 7.234375 48.140625 7.234375 53.078125 
Q 7.234375 58.5 10.296875 63.203125 
Q 13.375 67.921875 19.28125 70.359375 
Q 25.203125 72.796875 32.421875 72.796875 
Q 40.375 72.796875 46.453125 70.234375 
Q 52.546875 67.671875 55.8125 62.6875 
Q 59.078125 57.71875 59.328125 51.421875 
L 50.25 50.734375 
Q 49.515625 57.515625 45.28125 60.984375 
Q 41.0625 64.453125 32.8125 64.453125 
Q 24.21875 64.453125 20.28125 61.296875 
Q 16.359375 58.15625 16.359375 53.71875 
Q 16.359375 49.859375 19.140625 47.359375 
Q 21.875 44.875 33.421875 42.265625 
Q 44.96875 39.65625 49.265625 37.703125 
Q 55.515625 34.8125 58.484375 30.390625 
Q 61.46875 25.984375 61.46875 20.21875 
Q 61.46875 14.5 58.203125 9.4375 
Q 54.9375 4.390625 48.796875 1.578125 
Q 42.671875 -1.21875 35.015625 -1.21875 
Q 25.296875 -1.21875 18.71875 1.609375 
Q 12.15625 4.4375 8.421875 10.125 
Q 4.6875 15.828125 4.5 23 
z
" id="ArialMT-83"/>
        <path d="M 40.578125 0 
L 40.578125 7.625 
Q 34.515625 -1.171875 24.125 -1.171875 
Q 19.53125 -1.171875 15.546875 0.578125 
Q 11.578125 2.34375 9.640625 5 
Q 7.71875 7.671875 6.9375 11.53125 
Q 6.390625 14.109375 6.390625 19.734375 
L 6.390625 51.859375 
L 15.1875 51.859375 
L 15.1875 23.09375 
Q 15.1875 16.21875 15.71875 13.8125 
Q 16.546875 10.359375 19.234375 8.375 
Q 21.921875 6.390625 25.875 6.390625 
Q 29.828125 6.390625 33.296875 8.421875 
Q 36.765625 10.453125 38.203125 13.9375 
Q 39.65625 17.4375 39.65625 24.078125 
L 39.65625 51.859375 
L 48.4375 51.859375 
L 48.4375 0 
z
" id="ArialMT-117"/>
        <path d="M 4.984375 -4.296875 
L 13.53125 -5.5625 
Q 14.0625 -9.515625 16.5 -11.328125 
Q 19.78125 -13.765625 25.4375 -13.765625 
Q 31.546875 -13.765625 34.859375 -11.328125 
Q 38.1875 -8.890625 39.359375 -4.5 
Q 40.046875 -1.8125 39.984375 6.78125 
Q 34.234375 0 25.640625 0 
Q 14.9375 0 9.078125 7.71875 
Q 3.21875 15.4375 3.21875 26.21875 
Q 3.21875 33.640625 5.90625 39.90625 
Q 8.59375 46.1875 13.6875 49.609375 
Q 18.796875 53.03125 25.6875 53.03125 
Q 34.859375 53.03125 40.828125 45.609375 
L 40.828125 51.859375 
L 48.921875 51.859375 
L 48.921875 7.03125 
Q 48.921875 -5.078125 46.453125 -10.125 
Q 44 -15.1875 38.640625 -18.109375 
Q 33.296875 -21.046875 25.484375 -21.046875 
Q 16.21875 -21.046875 10.5 -16.875 
Q 4.78125 -12.703125 4.984375 -4.296875 
z
M 12.25 26.859375 
Q 12.25 16.65625 16.296875 11.96875 
Q 20.359375 7.28125 26.46875 7.28125 
Q 32.515625 7.28125 36.609375 11.9375 
Q 40.71875 16.609375 40.71875 26.5625 
Q 40.71875 36.078125 36.5 40.90625 
Q 32.28125 45.75 26.3125 45.75 
Q 20.453125 45.75 16.34375 40.984375 
Q 12.25 36.234375 12.25 26.859375 
z
" id="ArialMT-103"/>
        <path d="M 40.4375 6.390625 
Q 35.546875 2.25 31.03125 0.53125 
Q 26.515625 -1.171875 21.34375 -1.171875 
Q 12.796875 -1.171875 8.203125 3 
Q 3.609375 7.171875 3.609375 13.671875 
Q 3.609375 17.484375 5.34375 20.625 
Q 7.078125 23.78125 9.890625 25.6875 
Q 12.703125 27.59375 16.21875 28.5625 
Q 18.796875 29.25 24.03125 29.890625 
Q 34.671875 31.15625 39.703125 32.90625 
Q 39.75 34.71875 39.75 35.203125 
Q 39.75 40.578125 37.25 42.78125 
Q 33.890625 45.75 27.25 45.75 
Q 21.046875 45.75 18.09375 43.578125 
Q 15.140625 41.40625 13.71875 35.890625 
L 5.125 37.0625 
Q 6.296875 42.578125 8.984375 45.96875 
Q 11.671875 49.359375 16.75 51.1875 
Q 21.828125 53.03125 28.515625 53.03125 
Q 35.15625 53.03125 39.296875 51.46875 
Q 43.453125 49.90625 45.40625 47.53125 
Q 47.359375 45.171875 48.140625 41.546875 
Q 48.578125 39.3125 48.578125 33.453125 
L 48.578125 21.734375 
Q 48.578125 9.46875 49.140625 6.21875 
Q 49.703125 2.984375 51.375 0 
L 42.1875 0 
Q 40.828125 2.734375 40.4375 6.390625 
z
M 39.703125 26.03125 
Q 34.90625 24.078125 25.34375 22.703125 
Q 19.921875 21.921875 17.671875 20.9375 
Q 15.4375 19.96875 14.203125 18.09375 
Q 12.984375 16.21875 12.984375 13.921875 
Q 12.984375 10.40625 15.640625 8.0625 
Q 18.3125 5.71875 23.4375 5.71875 
Q 28.515625 5.71875 32.46875 7.9375 
Q 36.421875 10.15625 38.28125 14.015625 
Q 39.703125 17 39.703125 22.796875 
z
" id="ArialMT-97"/>
       </defs>
       <use xlink:href="#ArialMT-83"/>
       <use x="66.699219" xlink:href="#ArialMT-117"/>
       <use x="122.314453" xlink:href="#ArialMT-103"/>
       <use x="177.929688" xlink:href="#ArialMT-97"/>
       <use x="233.544922" xlink:href="#ArialMT-114"/>
      </g>
     </g>
    </g>
    <g id="xtick_5">
     <g id="line2d_9">
      <g>
       <use style="fill:#262626;stroke:#262626;stroke-width:1.25;" x="429.03" xlink:href="#mf4fc0b5039" y="178.7149"/>
      </g>
     </g>
     <g id="line2d_10">
      <g>
       <use style="fill:#262626;stroke:#262626;stroke-width:1.25;" x="429.03" xlink:href="#mfba2387f03" y="16.92"/>
      </g>
     </g>
     <g id="text_5">
      <!-- Cotton -->
      <g style="fill:#262626;" transform="translate(412.826484 196.088494)scale(0.11 -0.11)">
       <defs>
        <path d="M 58.796875 25.09375 
L 68.265625 22.703125 
Q 65.28125 11.03125 57.546875 4.90625 
Q 49.8125 -1.21875 38.625 -1.21875 
Q 27.046875 -1.21875 19.796875 3.484375 
Q 12.546875 8.203125 8.765625 17.140625 
Q 4.984375 26.078125 4.984375 36.328125 
Q 4.984375 47.515625 9.25 55.828125 
Q 13.53125 64.15625 21.40625 68.46875 
Q 29.296875 72.796875 38.765625 72.796875 
Q 49.515625 72.796875 56.828125 67.328125 
Q 64.15625 61.859375 67.046875 51.953125 
L 57.71875 49.75 
Q 55.21875 57.5625 50.484375 61.125 
Q 45.75 64.703125 38.578125 64.703125 
Q 30.328125 64.703125 24.78125 60.734375 
Q 19.234375 56.78125 16.984375 50.109375 
Q 14.75 43.453125 14.75 36.375 
Q 14.75 27.25 17.40625 20.4375 
Q 20.0625 13.625 25.671875 10.25 
Q 31.296875 6.890625 37.84375 6.890625 
Q 45.796875 6.890625 51.3125 11.46875 
Q 56.84375 16.0625 58.796875 25.09375 
z
" id="ArialMT-67"/>
       </defs>
       <use xlink:href="#ArialMT-67"/>
       <use x="72.216797" xlink:href="#ArialMT-111"/>
       <use x="127.832031" xlink:href="#ArialMT-116"/>
       <use x="155.615234" xlink:href="#ArialMT-116"/>
       <use x="183.398438" xlink:href="#ArialMT-111"/>
       <use x="239.013672" xlink:href="#ArialMT-110"/>
      </g>
     </g>
    </g>
   </g>
   <g id="matplotlib.axis_2">
    <g id="ytick_1">
     <g id="line2d_11">
      <defs>
       <path d="M 0 0 
L -6 0 
" id="m6b2f6e4459" style="stroke:#262626;stroke-width:1.25;"/>
      </defs>
      <g>
       <use style="fill:#262626;stroke:#262626;stroke-width:1.25;" x="64.39185" xlink:href="#m6b2f6e4459" y="178.7149"/>
      </g>
     </g>
     <g id="line2d_12">
      <defs>
       <path d="M 0 0 
L 6 0 
" id="mc27dbf9702" style="stroke:#262626;stroke-width:1.25;"/>
      </defs>
      <g>
       <use style="fill:#262626;stroke:#262626;stroke-width:1.25;" x="429.03" xlink:href="#mc27dbf9702" y="178.7149"/>
      </g>
     </g>
     <g id="text_6">
      <!-- 0.0 -->
      <g style="fill:#262626;" transform="translate(39.60185 182.651697)scale(0.11 -0.11)">
       <defs>
        <path d="M 4.15625 35.296875 
Q 4.15625 48 6.765625 55.734375 
Q 9.375 63.484375 14.515625 67.671875 
Q 19.671875 71.875 27.484375 71.875 
Q 33.25 71.875 37.59375 69.546875 
Q 41.9375 67.234375 44.765625 62.859375 
Q 47.609375 58.5 49.21875 52.21875 
Q 50.828125 45.953125 50.828125 35.296875 
Q 50.828125 22.703125 48.234375 14.96875 
Q 45.65625 7.234375 40.5 3 
Q 35.359375 -1.21875 27.484375 -1.21875 
Q 17.140625 -1.21875 11.234375 6.203125 
Q 4.15625 15.140625 4.15625 35.296875 
z
M 13.1875 35.296875 
Q 13.1875 17.671875 17.3125 11.828125 
Q 21.4375 6 27.484375 6 
Q 33.546875 6 37.671875 11.859375 
Q 41.796875 17.71875 41.796875 35.296875 
Q 41.796875 52.984375 37.671875 58.78125 
Q 33.546875 64.59375 27.390625 64.59375 
Q 21.34375 64.59375 17.71875 59.46875 
Q 13.1875 52.9375 13.1875 35.296875 
z
" id="ArialMT-48"/>
        <path d="M 9.078125 0 
L 9.078125 10.015625 
L 19.09375 10.015625 
L 19.09375 0 
z
" id="ArialMT-46"/>
       </defs>
       <use xlink:href="#ArialMT-48"/>
       <use x="55.615234" xlink:href="#ArialMT-46"/>
       <use x="83.398438" xlink:href="#ArialMT-48"/>
      </g>
     </g>
    </g>
    <g id="ytick_2">
     <g id="line2d_13">
      <g>
       <use style="fill:#262626;stroke:#262626;stroke-width:1.25;" x="64.39185" xlink:href="#m6b2f6e4459" y="146.35592"/>
      </g>
     </g>
     <g id="line2d_14">
      <g>
       <use style="fill:#262626;stroke:#262626;stroke-width:1.25;" x="429.03" xlink:href="#mc27dbf9702" y="146.35592"/>
      </g>
     </g>
     <g id="text_7">
      <!-- 0.2 -->
      <g style="fill:#262626;" transform="translate(39.60185 150.292717)scale(0.11 -0.11)">
       <defs>
        <path d="M 50.34375 8.453125 
L 50.34375 0 
L 3.03125 0 
Q 2.9375 3.171875 4.046875 6.109375 
Q 5.859375 10.9375 9.828125 15.625 
Q 13.8125 20.3125 21.34375 26.46875 
Q 33.015625 36.03125 37.109375 41.625 
Q 41.21875 47.21875 41.21875 52.203125 
Q 41.21875 57.421875 37.46875 61 
Q 33.734375 64.59375 27.734375 64.59375 
Q 21.390625 64.59375 17.578125 60.78125 
Q 13.765625 56.984375 13.71875 50.25 
L 4.6875 51.171875 
Q 5.609375 61.28125 11.65625 66.578125 
Q 17.71875 71.875 27.9375 71.875 
Q 38.234375 71.875 44.234375 66.15625 
Q 50.25 60.453125 50.25 52 
Q 50.25 47.703125 48.484375 43.546875 
Q 46.734375 39.40625 42.65625 34.8125 
Q 38.578125 30.21875 29.109375 22.21875 
Q 21.1875 15.578125 18.9375 13.203125 
Q 16.703125 10.84375 15.234375 8.453125 
z
" id="ArialMT-50"/>
       </defs>
       <use xlink:href="#ArialMT-48"/>
       <use x="55.615234" xlink:href="#ArialMT-46"/>
       <use x="83.398438" xlink:href="#ArialMT-50"/>
      </g>
     </g>
    </g>
    <g id="ytick_3">
     <g id="line2d_15">
      <g>
       <use style="fill:#262626;stroke:#262626;stroke-width:1.25;" x="64.39185" xlink:href="#m6b2f6e4459" y="113.99694"/>
      </g>
     </g>
     <g id="line2d_16">
      <g>
       <use style="fill:#262626;stroke:#262626;stroke-width:1.25;" x="429.03" xlink:href="#mc27dbf9702" y="113.99694"/>
      </g>
     </g>
     <g id="text_8">
      <!-- 0.4 -->
      <g style="fill:#262626;" transform="translate(39.60185 117.933737)scale(0.11 -0.11)">
       <defs>
        <path d="M 32.328125 0 
L 32.328125 17.140625 
L 1.265625 17.140625 
L 1.265625 25.203125 
L 33.9375 71.578125 
L 41.109375 71.578125 
L 41.109375 25.203125 
L 50.78125 25.203125 
L 50.78125 17.140625 
L 41.109375 17.140625 
L 41.109375 0 
z
M 32.328125 25.203125 
L 32.328125 57.46875 
L 9.90625 25.203125 
z
" id="ArialMT-52"/>
       </defs>
       <use xlink:href="#ArialMT-48"/>
       <use x="55.615234" xlink:href="#ArialMT-46"/>
       <use x="83.398438" xlink:href="#ArialMT-52"/>
      </g>
     </g>
    </g>
    <g id="ytick_4">
     <g id="line2d_17">
      <g>
       <use style="fill:#262626;stroke:#262626;stroke-width:1.25;" x="64.39185" xlink:href="#m6b2f6e4459" y="81.63796"/>
      </g>
     </g>
     <g id="line2d_18">
      <g>
       <use style="fill:#262626;stroke:#262626;stroke-width:1.25;" x="429.03" xlink:href="#mc27dbf9702" y="81.63796"/>
      </g>
     </g>
     <g id="text_9">
      <!-- 0.6 -->
      <g style="fill:#262626;" transform="translate(39.60185 85.574757)scale(0.11 -0.11)">
       <defs>
        <path d="M 49.75 54.046875 
L 41.015625 53.375 
Q 39.84375 58.546875 37.703125 60.890625 
Q 34.125 64.65625 28.90625 64.65625 
Q 24.703125 64.65625 21.53125 62.3125 
Q 17.390625 59.28125 14.984375 53.46875 
Q 12.59375 47.65625 12.5 36.921875 
Q 15.671875 41.75 20.265625 44.09375 
Q 24.859375 46.4375 29.890625 46.4375 
Q 38.671875 46.4375 44.84375 39.96875 
Q 51.03125 33.5 51.03125 23.25 
Q 51.03125 16.5 48.125 10.71875 
Q 45.21875 4.9375 40.140625 1.859375 
Q 35.0625 -1.21875 28.609375 -1.21875 
Q 17.625 -1.21875 10.6875 6.859375 
Q 3.765625 14.9375 3.765625 33.5 
Q 3.765625 54.25 11.421875 63.671875 
Q 18.109375 71.875 29.4375 71.875 
Q 37.890625 71.875 43.28125 67.140625 
Q 48.6875 62.40625 49.75 54.046875 
z
M 13.875 23.1875 
Q 13.875 18.65625 15.796875 14.5 
Q 17.71875 10.359375 21.1875 8.171875 
Q 24.65625 6 28.46875 6 
Q 34.03125 6 38.03125 10.484375 
Q 42.046875 14.984375 42.046875 22.703125 
Q 42.046875 30.125 38.078125 34.390625 
Q 34.125 38.671875 28.125 38.671875 
Q 22.171875 38.671875 18.015625 34.390625 
Q 13.875 30.125 13.875 23.1875 
z
" id="ArialMT-54"/>
       </defs>
       <use xlink:href="#ArialMT-48"/>
       <use x="55.615234" xlink:href="#ArialMT-46"/>
       <use x="83.398438" xlink:href="#ArialMT-54"/>
      </g>
     </g>
    </g>
    <g id="ytick_5">
     <g id="line2d_19">
      <g>
       <use style="fill:#262626;stroke:#262626;stroke-width:1.25;" x="64.39185" xlink:href="#m6b2f6e4459" y="49.27898"/>
      </g>
     </g>
     <g id="line2d_20">
      <g>
       <use style="fill:#262626;stroke:#262626;stroke-width:1.25;" x="429.03" xlink:href="#mc27dbf9702" y="49.27898"/>
      </g>
     </g>
     <g id="text_10">
      <!-- 0.8 -->
      <g style="fill:#262626;" transform="translate(39.60185 53.215777)scale(0.11 -0.11)">
       <defs>
        <path d="M 17.671875 38.8125 
Q 12.203125 40.828125 9.5625 44.53125 
Q 6.9375 48.25 6.9375 53.421875 
Q 6.9375 61.234375 12.546875 66.546875 
Q 18.171875 71.875 27.484375 71.875 
Q 36.859375 71.875 42.578125 66.421875 
Q 48.296875 60.984375 48.296875 53.171875 
Q 48.296875 48.1875 45.671875 44.5 
Q 43.0625 40.828125 37.75 38.8125 
Q 44.34375 36.671875 47.78125 31.875 
Q 51.21875 27.09375 51.21875 20.453125 
Q 51.21875 11.28125 44.71875 5.03125 
Q 38.234375 -1.21875 27.640625 -1.21875 
Q 17.046875 -1.21875 10.546875 5.046875 
Q 4.046875 11.328125 4.046875 20.703125 
Q 4.046875 27.6875 7.59375 32.390625 
Q 11.140625 37.109375 17.671875 38.8125 
z
M 15.921875 53.71875 
Q 15.921875 48.640625 19.1875 45.40625 
Q 22.46875 42.1875 27.6875 42.1875 
Q 32.765625 42.1875 36.015625 45.375 
Q 39.265625 48.578125 39.265625 53.21875 
Q 39.265625 58.0625 35.90625 61.359375 
Q 32.5625 64.65625 27.59375 64.65625 
Q 22.5625 64.65625 19.234375 61.421875 
Q 15.921875 58.203125 15.921875 53.71875 
z
M 13.09375 20.65625 
Q 13.09375 16.890625 14.875 13.375 
Q 16.65625 9.859375 20.171875 7.921875 
Q 23.6875 6 27.734375 6 
Q 34.03125 6 38.125 10.046875 
Q 42.234375 14.109375 42.234375 20.359375 
Q 42.234375 26.703125 38.015625 30.859375 
Q 33.796875 35.015625 27.4375 35.015625 
Q 21.234375 35.015625 17.15625 30.90625 
Q 13.09375 26.8125 13.09375 20.65625 
z
" id="ArialMT-56"/>
       </defs>
       <use xlink:href="#ArialMT-48"/>
       <use x="55.615234" xlink:href="#ArialMT-46"/>
       <use x="83.398438" xlink:href="#ArialMT-56"/>
      </g>
     </g>
    </g>
    <g id="ytick_6">
     <g id="line2d_21">
      <g>
       <use style="fill:#262626;stroke:#262626;stroke-width:1.25;" x="64.39185" xlink:href="#m6b2f6e4459" y="16.92"/>
      </g>
     </g>
     <g id="line2d_22">
      <g>
       <use style="fill:#262626;stroke:#262626;stroke-width:1.25;" x="429.03" xlink:href="#mc27dbf9702" y="16.92"/>
      </g>
     </g>
     <g id="text_11">
      <!-- 1.0 -->
      <g style="fill:#262626;" transform="translate(39.60185 20.856797)scale(0.11 -0.11)">
       <defs>
        <path d="M 37.25 0 
L 28.46875 0 
L 28.46875 56 
Q 25.296875 52.984375 20.140625 49.953125 
Q 14.984375 46.921875 10.890625 45.40625 
L 10.890625 53.90625 
Q 18.265625 57.375 23.78125 62.296875 
Q 29.296875 67.234375 31.59375 71.875 
L 37.25 71.875 
z
" id="ArialMT-49"/>
       </defs>
       <use xlink:href="#ArialMT-49"/>
       <use x="55.615234" xlink:href="#ArialMT-46"/>
       <use x="83.398438" xlink:href="#ArialMT-48"/>
      </g>
     </g>
    </g>
    <g id="text_12">
     <!-- Scaled Objective Values -->
     <g style="fill:#262626;" transform="translate(33.076225 162.408387)rotate(-90)scale(0.12 -0.12)">
      <defs>
       <path d="M 6.390625 0 
L 6.390625 71.578125 
L 15.1875 71.578125 
L 15.1875 0 
z
" id="ArialMT-108"/>
       <path id="ArialMT-32"/>
       <path d="M 4.828125 34.859375 
Q 4.828125 52.6875 14.390625 62.765625 
Q 23.96875 72.859375 39.109375 72.859375 
Q 49.03125 72.859375 56.984375 68.109375 
Q 64.9375 63.375 69.109375 54.90625 
Q 73.296875 46.4375 73.296875 35.6875 
Q 73.296875 24.8125 68.890625 16.21875 
Q 64.5 7.625 56.4375 3.203125 
Q 48.390625 -1.21875 39.0625 -1.21875 
Q 28.953125 -1.21875 20.984375 3.65625 
Q 13.03125 8.546875 8.921875 16.984375 
Q 4.828125 25.4375 4.828125 34.859375 
z
M 14.59375 34.71875 
Q 14.59375 21.78125 21.546875 14.328125 
Q 28.515625 6.890625 39.015625 6.890625 
Q 49.703125 6.890625 56.609375 14.40625 
Q 63.53125 21.921875 63.53125 35.75 
Q 63.53125 44.484375 60.578125 51 
Q 57.625 57.515625 51.921875 61.109375 
Q 46.234375 64.703125 39.15625 64.703125 
Q 29.109375 64.703125 21.84375 57.78125 
Q 14.59375 50.875 14.59375 34.71875 
z
" id="ArialMT-79"/>
       <path d="M 14.703125 0 
L 6.546875 0 
L 6.546875 71.578125 
L 15.328125 71.578125 
L 15.328125 46.046875 
Q 20.90625 53.03125 29.546875 53.03125 
Q 34.328125 53.03125 38.59375 51.09375 
Q 42.875 49.171875 45.625 45.671875 
Q 48.390625 42.1875 49.953125 37.25 
Q 51.515625 32.328125 51.515625 26.703125 
Q 51.515625 13.375 44.921875 6.09375 
Q 38.328125 -1.171875 29.109375 -1.171875 
Q 19.921875 -1.171875 14.703125 6.5 
z
M 14.59375 26.3125 
Q 14.59375 17 17.140625 12.84375 
Q 21.296875 6.0625 28.375 6.0625 
Q 34.125 6.0625 38.328125 11.0625 
Q 42.53125 16.0625 42.53125 25.984375 
Q 42.53125 36.140625 38.5 40.96875 
Q 34.46875 45.796875 28.765625 45.796875 
Q 23 45.796875 18.796875 40.796875 
Q 14.59375 35.796875 14.59375 26.3125 
z
" id="ArialMT-98"/>
       <path d="M 6.546875 61.375 
L 6.546875 71.578125 
L 15.328125 71.578125 
L 15.328125 61.375 
z
M -4.59375 -20.125 
L -2.9375 -12.640625 
Q -0.296875 -13.328125 1.21875 -13.328125 
Q 3.90625 -13.328125 5.21875 -11.546875 
Q 6.546875 -9.765625 6.546875 -2.640625 
L 6.546875 51.859375 
L 15.328125 51.859375 
L 15.328125 -2.828125 
Q 15.328125 -12.40625 12.84375 -16.15625 
Q 9.671875 -21.046875 2.296875 -21.046875 
Q -1.265625 -21.046875 -4.59375 -20.125 
z
" id="ArialMT-106"/>
       <path d="M 28.171875 0 
L 0.4375 71.578125 
L 10.6875 71.578125 
L 29.296875 19.578125 
Q 31.546875 13.328125 33.0625 7.859375 
Q 34.71875 13.71875 36.921875 19.578125 
L 56.25 71.578125 
L 65.921875 71.578125 
L 37.890625 0 
z
" id="ArialMT-86"/>
      </defs>
      <use xlink:href="#ArialMT-83"/>
      <use x="66.699219" xlink:href="#ArialMT-99"/>
      <use x="116.699219" xlink:href="#ArialMT-97"/>
      <use x="172.314453" xlink:href="#ArialMT-108"/>
      <use x="194.53125" xlink:href="#ArialMT-101"/>
      <use x="250.146484" xlink:href="#ArialMT-100"/>
      <use x="305.761719" xlink:href="#ArialMT-32"/>
      <use x="333.544922" xlink:href="#ArialMT-79"/>
      <use x="411.328125" xlink:href="#ArialMT-98"/>
      <use x="466.943359" xlink:href="#ArialMT-106"/>
      <use x="489.160156" xlink:href="#ArialMT-101"/>
      <use x="544.775391" xlink:href="#ArialMT-99"/>
      <use x="594.775391" xlink:href="#ArialMT-116"/>
      <use x="622.558594" xlink:href="#ArialMT-105"/>
      <use x="644.775391" xlink:href="#ArialMT-118"/>
      <use x="694.775391" xlink:href="#ArialMT-101"/>
      <use x="750.390625" xlink:href="#ArialMT-32"/>
      <use x="778.173828" xlink:href="#ArialMT-86"/>
      <use x="837.498047" xlink:href="#ArialMT-97"/>
      <use x="893.113281" xlink:href="#ArialMT-108"/>
      <use x="915.330078" xlink:href="#ArialMT-117"/>
      <use x="970.945312" xlink:href="#ArialMT-101"/>
      <use x="1026.560547" xlink:href="#ArialMT-115"/>
     </g>
    </g>
   </g>
   <g id="line2d_23">
    <path clip-path="url(#paa7fa46646)" d="M 64.39185 144.347216 
L 155.551388 96.243594 
L 246.710925 158.240279 
L 337.870463 177.119667 
L 429.03 165.549798 
" style="fill:none;stroke:#d3d3d3;stroke-linecap:round;stroke-width:2;"/>
   </g>
   <g id="line2d_24">
    <path clip-path="url(#paa7fa46646)" d="M 64.39185 141.022931 
L 155.551388 133.19957 
L 246.710925 172.031809 
L 337.870463 172.389737 
L 429.03 169.92371 
" style="fill:none;stroke:#d3d3d3;stroke-linecap:round;stroke-width:2;"/>
   </g>
   <g id="line2d_25">
    <path clip-path="url(#paa7fa46646)" d="M 64.39185 152.793231 
L 155.551388 87.874587 
L 246.710925 125.422086 
L 337.870463 141.60035 
L 429.03 176.939756 
" style="fill:none;stroke:#d3d3d3;stroke-linecap:round;stroke-width:2;"/>
   </g>
   <g id="line2d_26">
    <path clip-path="url(#paa7fa46646)" d="M 64.39185 123.291574 
L 155.551388 109.794898 
L 246.710925 178.388754 
L 337.870463 177.345227 
L 429.03 166.067774 
" style="fill:none;stroke:#d3d3d3;stroke-linecap:round;stroke-width:2;"/>
   </g>
   <g id="line2d_27">
    <path clip-path="url(#paa7fa46646)" d="M 64.39185 134.600861 
L 155.551388 110.054256 
L 246.710925 178.7149 
L 337.870463 176.568023 
L 429.03 171.537829 
" style="fill:none;stroke:#d3d3d3;stroke-linecap:round;stroke-width:2;"/>
   </g>
   <g id="line2d_28">
    <path clip-path="url(#paa7fa46646)" d="M 64.39185 135.190698 
L 155.551388 89.750204 
L 246.710925 165.501116 
L 337.870463 177.173785 
L 429.03 166.537361 
" style="fill:none;stroke:#d3d3d3;stroke-linecap:round;stroke-width:2;"/>
   </g>
   <g id="line2d_29">
    <path clip-path="url(#paa7fa46646)" d="M 64.39185 118.691506 
L 155.551388 132.846434 
L 246.710925 176.954913 
L 337.870463 177.360559 
L 429.03 156.015995 
" style="fill:none;stroke:#d3d3d3;stroke-linecap:round;stroke-width:2;"/>
   </g>
   <g id="line2d_30">
    <path clip-path="url(#paa7fa46646)" d="M 64.39185 153.926455 
L 155.551388 65.903405 
L 246.710925 157.817502 
L 337.870463 178.347439 
L 429.03 156.452975 
" style="fill:none;stroke:#d3d3d3;stroke-linecap:round;stroke-width:2;"/>
   </g>
   <g id="line2d_31">
    <path clip-path="url(#paa7fa46646)" d="M 64.39185 142.77261 
L 155.551388 113.629803 
L 246.710925 163.778324 
L 337.870463 141.018121 
L 429.03 178.630243 
" style="fill:none;stroke:#d3d3d3;stroke-linecap:round;stroke-width:2;"/>
   </g>
   <g id="line2d_32">
    <path clip-path="url(#paa7fa46646)" d="M 64.39185 148.305137 
L 155.551388 102.09238 
L 246.710925 172.492291 
L 337.870463 161.978284 
L 429.03 176.912922 
" style="fill:none;stroke:#d3d3d3;stroke-linecap:round;stroke-width:2;"/>
   </g>
   <g id="line2d_33">
    <path clip-path="url(#paa7fa46646)" d="M 64.39185 141.967094 
L 155.551388 116.653988 
L 246.710925 167.704429 
L 337.870463 177.241426 
L 429.03 159.639651 
" style="fill:none;stroke:#d3d3d3;stroke-linecap:round;stroke-width:2;"/>
   </g>
   <g id="line2d_34">
    <path clip-path="url(#paa7fa46646)" d="M 64.39185 144.616434 
L 155.551388 134.198345 
L 246.710925 172.148874 
L 337.870463 175.42696 
L 429.03 163.000033 
" style="fill:none;stroke:#d3d3d3;stroke-linecap:round;stroke-width:2;"/>
   </g>
   <g id="line2d_35">
    <path clip-path="url(#paa7fa46646)" d="M 64.39185 156.936104 
L 155.551388 114.379399 
L 246.710925 172.409599 
L 337.870463 175.645161 
L 429.03 167.555384 
" style="fill:none;stroke:#d3d3d3;stroke-linecap:round;stroke-width:2;"/>
   </g>
   <g id="line2d_36">
    <path clip-path="url(#paa7fa46646)" d="M 64.39185 156.414498 
L 155.551388 77.862469 
L 246.710925 169.415613 
L 337.870463 140.093185 
L 429.03 178.7149 
" style="fill:none;stroke:#d3d3d3;stroke-linecap:round;stroke-width:2;"/>
   </g>
   <g id="line2d_37">
    <path clip-path="url(#paa7fa46646)" d="M 64.39185 112.096015 
L 155.551388 132.868639 
L 246.710925 177.53043 
L 337.870463 177.138221 
L 429.03 158.408238 
" style="fill:none;stroke:#d3d3d3;stroke-linecap:round;stroke-width:2;"/>
   </g>
   <g id="line2d_38">
    <path clip-path="url(#paa7fa46646)" d="M 64.39185 146.317076 
L 155.551388 155.022892 
L 246.710925 139.536331 
L 337.870463 110.362838 
L 429.03 163.974619 
" style="fill:none;stroke:#d3d3d3;stroke-linecap:round;stroke-width:2;"/>
   </g>
   <g id="line2d_39">
    <path clip-path="url(#paa7fa46646)" d="M 64.39185 155.998305 
L 155.551388 131.683241 
L 246.710925 171.662819 
L 337.870463 176.209568 
L 429.03 160.795528 
" style="fill:none;stroke:#d3d3d3;stroke-linecap:round;stroke-width:2;"/>
   </g>
   <g id="line2d_40">
    <path clip-path="url(#paa7fa46646)" d="M 64.39185 149.605197 
L 155.551388 116.478759 
L 246.710925 97.995874 
L 337.870463 146.3976 
L 429.03 177.29659 
" style="fill:none;stroke:#d3d3d3;stroke-linecap:round;stroke-width:2;"/>
   </g>
   <g id="line2d_41">
    <path clip-path="url(#paa7fa46646)" d="M 64.39185 144.799166 
L 155.551388 107.230151 
L 246.710925 171.690225 
L 337.870463 175.386668 
L 429.03 170.227817 
" style="fill:none;stroke:#d3d3d3;stroke-linecap:round;stroke-width:2;"/>
   </g>
   <g id="line2d_42">
    <path clip-path="url(#paa7fa46646)" d="M 64.39185 141.241446 
L 155.551388 65.461254 
L 246.710925 168.880876 
L 337.870463 178.015532 
L 429.03 164.018177 
" style="fill:none;stroke:#d3d3d3;stroke-linecap:round;stroke-width:2;"/>
   </g>
   <g id="line2d_43">
    <path clip-path="url(#paa7fa46646)" d="M 64.39185 133.225873 
L 155.551388 81.463414 
L 246.710925 172.58893 
L 337.870463 177.293512 
L 429.03 171.801476 
" style="fill:none;stroke:#d3d3d3;stroke-linecap:round;stroke-width:2;"/>
   </g>
   <g id="line2d_44">
    <path clip-path="url(#paa7fa46646)" d="M 64.39185 139.457166 
L 155.551388 120.050351 
L 246.710925 175.198349 
L 337.870463 160.651025 
L 429.03 176.443053 
" style="fill:none;stroke:#d3d3d3;stroke-linecap:round;stroke-width:2;"/>
   </g>
   <g id="line2d_45">
    <path clip-path="url(#paa7fa46646)" d="M 64.39185 141.5309 
L 155.551388 136.681402 
L 246.710925 164.887784 
L 337.870463 177.153086 
L 429.03 98.985322 
" style="fill:none;stroke:#d3d3d3;stroke-linecap:round;stroke-width:2;"/>
   </g>
   <g id="line2d_46">
    <path clip-path="url(#paa7fa46646)" d="M 64.39185 146.962771 
L 155.551388 154.995136 
L 246.710925 152.912248 
L 337.870463 29.584875 
L 429.03 167.545898 
" style="fill:none;stroke:#d3d3d3;stroke-linecap:round;stroke-width:2;"/>
   </g>
   <g id="line2d_47">
    <path clip-path="url(#paa7fa46646)" d="M 64.39185 144.740294 
L 155.551388 154.895659 
L 246.710925 173.869232 
L 337.870463 92.706494 
L 429.03 155.988436 
" style="fill:none;stroke:#d3d3d3;stroke-linecap:round;stroke-width:2;"/>
   </g>
   <g id="line2d_48">
    <path clip-path="url(#paa7fa46646)" d="M 64.39185 139.314916 
L 155.551388 155.317523 
L 246.710925 167.560356 
L 337.870463 175.954842 
L 429.03 146.786756 
" style="fill:none;stroke:#d3d3d3;stroke-linecap:round;stroke-width:2;"/>
   </g>
   <g id="line2d_49">
    <path clip-path="url(#paa7fa46646)" d="M 64.39185 138.549468 
L 155.551388 156.383632 
L 246.710925 132.204721 
L 337.870463 174.110339 
L 429.03 154.112745 
" style="fill:none;stroke:#d3d3d3;stroke-linecap:round;stroke-width:2;"/>
   </g>
   <g id="line2d_50">
    <path clip-path="url(#paa7fa46646)" d="M 64.39185 157.172554 
L 155.551388 154.243256 
L 246.710925 164.974656 
L 337.870463 36.666816 
L 429.03 115.763644 
" style="fill:none;stroke:#d3d3d3;stroke-linecap:round;stroke-width:2;"/>
   </g>
   <g id="line2d_51">
    <path clip-path="url(#paa7fa46646)" d="M 64.39185 156.359246 
L 155.551388 154.627396 
L 246.710925 159.903282 
L 337.870463 31.280745 
L 429.03 136.683471 
" style="fill:none;stroke:#d3d3d3;stroke-linecap:round;stroke-width:2;"/>
   </g>
   <g id="line2d_52">
    <path clip-path="url(#paa7fa46646)" d="M 64.39185 130.045556 
L 155.551388 155.150562 
L 246.710925 170.086219 
L 337.870463 111.126398 
L 429.03 165.799232 
" style="fill:none;stroke:#d3d3d3;stroke-linecap:round;stroke-width:2;"/>
   </g>
   <g id="line2d_53">
    <path clip-path="url(#paa7fa46646)" d="M 64.39185 154.504363 
L 155.551388 154.654304 
L 246.710925 144.246458 
L 337.870463 169.461045 
L 429.03 115.192293 
" style="fill:none;stroke:#d3d3d3;stroke-linecap:round;stroke-width:2;"/>
   </g>
   <g id="line2d_54">
    <path clip-path="url(#paa7fa46646)" d="M 64.39185 152.691179 
L 155.551388 96.725064 
L 246.710925 140.138423 
L 337.870463 177.418432 
L 429.03 150.047913 
" style="fill:none;stroke:#d3d3d3;stroke-linecap:round;stroke-width:2;"/>
   </g>
   <g id="line2d_55">
    <path clip-path="url(#paa7fa46646)" d="M 64.39185 152.745846 
L 155.551388 114.28496 
L 246.710925 141.896395 
L 337.870463 177.281563 
L 429.03 145.247455 
" style="fill:none;stroke:#d3d3d3;stroke-linecap:round;stroke-width:2;"/>
   </g>
   <g id="line2d_56">
    <path clip-path="url(#paa7fa46646)" d="M 64.39185 149.735532 
L 155.551388 154.692276 
L 246.710925 175.822415 
L 337.870463 176.260883 
L 429.03 109.862649 
" style="fill:none;stroke:#d3d3d3;stroke-linecap:round;stroke-width:2;"/>
   </g>
   <g id="line2d_57">
    <path clip-path="url(#paa7fa46646)" d="M 64.39185 153.098956 
L 155.551388 154.739333 
L 246.710925 174.537388 
L 337.870463 175.159372 
L 429.03 64.800334 
" style="fill:none;stroke:#d3d3d3;stroke-linecap:round;stroke-width:2;"/>
   </g>
   <g id="line2d_58">
    <path clip-path="url(#paa7fa46646)" d="M 64.39185 153.586557 
L 155.551388 102.268686 
L 246.710925 164.05887 
L 337.870463 166.686388 
L 429.03 171.714681 
" style="fill:none;stroke:#d3d3d3;stroke-linecap:round;stroke-width:2;"/>
   </g>
   <g id="line2d_59">
    <path clip-path="url(#paa7fa46646)" d="M 64.39185 164.249005 
L 155.551388 120.625644 
L 246.710925 166.048707 
L 337.870463 176.139296 
L 429.03 143.044781 
" style="fill:none;stroke:#d3d3d3;stroke-linecap:round;stroke-width:2;"/>
   </g>
   <g id="line2d_60">
    <path clip-path="url(#paa7fa46646)" d="M 64.39185 150.419818 
L 155.551388 154.115523 
L 246.710925 162.104919 
L 337.870463 175.55104 
L 429.03 145.801067 
" style="fill:none;stroke:#d3d3d3;stroke-linecap:round;stroke-width:2;"/>
   </g>
   <g id="line2d_61">
    <path clip-path="url(#paa7fa46646)" d="M 64.39185 143.484165 
L 155.551388 154.366468 
L 246.710925 175.789424 
L 337.870463 158.967247 
L 429.03 146.696453 
" style="fill:none;stroke:#d3d3d3;stroke-linecap:round;stroke-width:2;"/>
   </g>
   <g id="line2d_62">
    <path clip-path="url(#paa7fa46646)" d="M 64.39185 152.624531 
L 155.551388 111.029678 
L 246.710925 166.536716 
L 337.870463 177.511692 
L 429.03 89.174398 
" style="fill:none;stroke:#d3d3d3;stroke-linecap:round;stroke-width:2;"/>
   </g>
   <g id="line2d_63">
    <path clip-path="url(#paa7fa46646)" d="M 64.39185 141.515948 
L 155.551388 111.871697 
L 246.710925 178.47528 
L 337.870463 166.983324 
L 429.03 171.689209 
" style="fill:none;stroke:#d3d3d3;stroke-linecap:round;stroke-width:2;"/>
   </g>
   <g id="line2d_64">
    <path clip-path="url(#paa7fa46646)" d="M 64.39185 164.768452 
L 155.551388 115.043867 
L 246.710925 167.792162 
L 337.870463 165.363724 
L 429.03 171.500265 
" style="fill:none;stroke:#d3d3d3;stroke-linecap:round;stroke-width:2;"/>
   </g>
   <g id="line2d_65">
    <path clip-path="url(#paa7fa46646)" d="M 64.39185 164.801104 
L 155.551388 136.333721 
L 246.710925 159.507758 
L 337.870463 121.161101 
L 429.03 167.621495 
" style="fill:none;stroke:#d3d3d3;stroke-linecap:round;stroke-width:2;"/>
   </g>
   <g id="line2d_66">
    <path clip-path="url(#paa7fa46646)" d="M 64.39185 165.121256 
L 155.551388 142.725421 
L 246.710925 168.681023 
L 337.870463 176.076329 
L 429.03 86.843296 
" style="fill:none;stroke:#d3d3d3;stroke-linecap:round;stroke-width:2;"/>
   </g>
   <g id="line2d_67">
    <path clip-path="url(#paa7fa46646)" d="M 64.39185 154.75313 
L 155.551388 91.775163 
L 246.710925 171.444106 
L 337.870463 178.7149 
L 429.03 53.387157 
" style="fill:none;stroke:#d3d3d3;stroke-linecap:round;stroke-width:2;"/>
   </g>
   <g id="line2d_68">
    <path clip-path="url(#paa7fa46646)" d="M 64.39185 164.338562 
L 155.551388 134.776298 
L 246.710925 165.462129 
L 337.870463 51.863692 
L 429.03 167.737555 
" style="fill:none;stroke:#d3d3d3;stroke-linecap:round;stroke-width:2;"/>
   </g>
   <g id="line2d_69">
    <path clip-path="url(#paa7fa46646)" d="M 64.39185 164.543226 
L 155.551388 132.728854 
L 246.710925 170.401073 
L 337.870463 159.80575 
L 429.03 157.158168 
" style="fill:none;stroke:#d3d3d3;stroke-linecap:round;stroke-width:2;"/>
   </g>
   <g id="line2d_70">
    <path clip-path="url(#paa7fa46646)" d="M 64.39185 148.522088 
L 155.551388 155.309535 
L 246.710925 174.55849 
L 337.870463 174.807792 
L 429.03 138.421852 
" style="fill:none;stroke:#d3d3d3;stroke-linecap:round;stroke-width:2;"/>
   </g>
   <g id="line2d_71">
    <path clip-path="url(#paa7fa46646)" d="M 64.39185 153.208876 
L 155.551388 95.073257 
L 246.710925 170.178943 
L 337.870463 177.670835 
L 429.03 144.64406 
" style="fill:none;stroke:#d3d3d3;stroke-linecap:round;stroke-width:2;"/>
   </g>
   <g id="line2d_72">
    <path clip-path="url(#paa7fa46646)" d="M 64.39185 134.459841 
L 155.551388 131.777684 
L 246.710925 175.571411 
L 337.870463 177.158894 
L 429.03 144.716979 
" style="fill:none;stroke:#d3d3d3;stroke-linecap:round;stroke-width:2;"/>
   </g>
   <g id="line2d_73">
    <path clip-path="url(#paa7fa46646)" d="M 64.39185 156.366001 
L 155.551388 115.27065 
L 246.710925 162.660055 
L 337.870463 177.310054 
L 429.03 95.318364 
" style="fill:none;stroke:#d3d3d3;stroke-linecap:round;stroke-width:2;"/>
   </g>
   <g id="line2d_74">
    <path clip-path="url(#paa7fa46646)" d="M 64.39185 163.977401 
L 155.551388 131.714637 
L 246.710925 126.882447 
L 337.870463 161.153751 
L 429.03 164.060736 
" style="fill:none;stroke:#d3d3d3;stroke-linecap:round;stroke-width:2;"/>
   </g>
   <g id="line2d_75">
    <path clip-path="url(#paa7fa46646)" d="M 64.39185 164.010856 
L 155.551388 132.191007 
L 246.710925 154.467764 
L 337.870463 165.061243 
L 429.03 155.863785 
" style="fill:none;stroke:#d3d3d3;stroke-linecap:round;stroke-width:2;"/>
   </g>
   <g id="line2d_76">
    <path clip-path="url(#paa7fa46646)" d="M 64.39185 164.785355 
L 155.551388 139.976193 
L 246.710925 165.933099 
L 337.870463 171.98269 
L 429.03 110.306017 
" style="fill:none;stroke:#d3d3d3;stroke-linecap:round;stroke-width:2;"/>
   </g>
   <g id="line2d_77">
    <path clip-path="url(#paa7fa46646)" d="M 64.39185 156.47146 
L 155.551388 132.288188 
L 246.710925 170.821846 
L 337.870463 165.322396 
L 429.03 171.668282 
" style="fill:none;stroke:#d3d3d3;stroke-linecap:round;stroke-width:2;"/>
   </g>
   <g id="line2d_78">
    <path clip-path="url(#paa7fa46646)" d="M 64.39185 156.851089 
L 155.551388 154.396252 
L 246.710925 149.434431 
L 337.870463 176.241488 
L 429.03 108.476405 
" style="fill:none;stroke:#d3d3d3;stroke-linecap:round;stroke-width:2;"/>
   </g>
   <g id="line2d_79">
    <path clip-path="url(#paa7fa46646)" d="M 64.39185 154.225146 
L 155.551388 154.526939 
L 246.710925 165.523893 
L 337.870463 175.914912 
L 429.03 49.807047 
" style="fill:none;stroke:#d3d3d3;stroke-linecap:round;stroke-width:2;"/>
   </g>
   <g id="line2d_80">
    <path clip-path="url(#paa7fa46646)" d="M 64.39185 164.379254 
L 155.551388 141.198144 
L 246.710925 159.614625 
L 337.870463 176.001388 
L 429.03 131.133547 
" style="fill:none;stroke:#d3d3d3;stroke-linecap:round;stroke-width:2;"/>
   </g>
   <g id="line2d_81">
    <path clip-path="url(#paa7fa46646)" d="M 64.39185 155.867196 
L 155.551388 154.150775 
L 246.710925 155.54903 
L 337.870463 163.988618 
L 429.03 130.182469 
" style="fill:none;stroke:#d3d3d3;stroke-linecap:round;stroke-width:2;"/>
   </g>
   <g id="line2d_82">
    <path clip-path="url(#paa7fa46646)" d="M 64.39185 56.407565 
L 155.551388 177.044498 
L 246.710925 161.062778 
L 337.870463 175.317351 
L 429.03 49.420354 
" style="fill:none;stroke:#d3d3d3;stroke-linecap:round;stroke-width:2;"/>
   </g>
   <g id="line2d_83">
    <path clip-path="url(#paa7fa46646)" d="M 64.39185 175.733832 
L 155.551388 132.982305 
L 246.710925 119.364257 
L 337.870463 177.138076 
L 429.03 59.437824 
" style="fill:none;stroke:#d3d3d3;stroke-linecap:round;stroke-width:2;"/>
   </g>
   <g id="line2d_84">
    <path clip-path="url(#paa7fa46646)" d="M 64.39185 178.7149 
L 155.551388 139.433551 
L 246.710925 141.116798 
L 337.870463 16.92 
L 429.03 155.275726 
" style="fill:none;stroke:#d3d3d3;stroke-linecap:round;stroke-width:2;"/>
   </g>
   <g id="line2d_85">
    <path clip-path="url(#paa7fa46646)" d="M 64.39185 41.477277 
L 155.551388 177.144514 
L 246.710925 166.443239 
L 337.870463 174.523036 
L 429.03 48.287479 
" style="fill:none;stroke:#d3d3d3;stroke-linecap:round;stroke-width:2;"/>
   </g>
   <g id="line2d_86">
    <path clip-path="url(#paa7fa46646)" d="M 64.39185 165.424966 
L 155.551388 141.70817 
L 246.710925 120.56197 
L 337.870463 177.737976 
L 429.03 154.057141 
" style="fill:none;stroke:#d3d3d3;stroke-linecap:round;stroke-width:2;"/>
   </g>
   <g id="line2d_87">
    <path clip-path="url(#paa7fa46646)" d="M 64.39185 165.958384 
L 155.551388 138.657685 
L 246.710925 164.221945 
L 337.870463 173.236509 
L 429.03 158.092306 
" style="fill:none;stroke:#d3d3d3;stroke-linecap:round;stroke-width:2;"/>
   </g>
   <g id="line2d_88">
    <path clip-path="url(#paa7fa46646)" d="M 64.39185 150.173382 
L 155.551388 144.545151 
L 246.710925 163.955745 
L 337.870463 177.164653 
L 429.03 156.038259 
" style="fill:none;stroke:#d3d3d3;stroke-linecap:round;stroke-width:2;"/>
   </g>
   <g id="line2d_89">
    <path clip-path="url(#paa7fa46646)" d="M 64.39185 119.089763 
L 155.551388 161.650661 
L 246.710925 170.087002 
L 337.870463 18.015421 
L 429.03 170.636157 
" style="fill:none;stroke:#d3d3d3;stroke-linecap:round;stroke-width:2;"/>
   </g>
   <g id="line2d_90">
    <path clip-path="url(#paa7fa46646)" d="M 64.39185 167.990507 
L 155.551388 105.538483 
L 246.710925 113.322407 
L 337.870463 168.103513 
L 429.03 171.707977 
" style="fill:none;stroke:#d3d3d3;stroke-linecap:round;stroke-width:2;"/>
   </g>
   <g id="line2d_91">
    <path clip-path="url(#paa7fa46646)" d="M 64.39185 146.974254 
L 155.551388 156.268035 
L 246.710925 168.920346 
L 337.870463 177.305994 
L 429.03 39.080511 
" style="fill:none;stroke:#d3d3d3;stroke-linecap:round;stroke-width:2;"/>
   </g>
   <g id="line2d_92">
    <path clip-path="url(#paa7fa46646)" d="M 64.39185 169.999139 
L 155.551388 132.803991 
L 246.710925 118.890882 
L 337.870463 167.175491 
L 429.03 170.7026 
" style="fill:none;stroke:#d3d3d3;stroke-linecap:round;stroke-width:2;"/>
   </g>
   <g id="line2d_93">
    <path clip-path="url(#paa7fa46646)" d="M 64.39185 167.489953 
L 155.551388 140.211643 
L 246.710925 149.011439 
L 337.870463 177.206918 
L 429.03 41.452886 
" style="fill:none;stroke:#d3d3d3;stroke-linecap:round;stroke-width:2;"/>
   </g>
   <g id="line2d_94">
    <path clip-path="url(#paa7fa46646)" d="M 64.39185 176.501187 
L 155.551388 128.405254 
L 246.710925 105.396384 
L 337.870463 165.365406 
L 429.03 170.696064 
" style="fill:none;stroke:#d3d3d3;stroke-linecap:round;stroke-width:2;"/>
   </g>
   <g id="line2d_95">
    <path clip-path="url(#paa7fa46646)" d="M 64.39185 165.673955 
L 155.551388 137.84383 
L 246.710925 159.288118 
L 337.870463 174.821607 
L 429.03 157.509085 
" style="fill:none;stroke:#d3d3d3;stroke-linecap:round;stroke-width:2;"/>
   </g>
   <g id="line2d_96">
    <path clip-path="url(#paa7fa46646)" d="M 64.39185 149.392869 
L 155.551388 155.321386 
L 246.710925 131.883238 
L 337.870463 177.266976 
L 429.03 154.18048 
" style="fill:none;stroke:#d3d3d3;stroke-linecap:round;stroke-width:2;"/>
   </g>
   <g id="line2d_97">
    <path clip-path="url(#paa7fa46646)" d="M 64.39185 153.2392 
L 155.551388 147.569771 
L 246.710925 166.28085 
L 337.870463 177.324237 
L 429.03 128.304756 
" style="fill:none;stroke:#d3d3d3;stroke-linecap:round;stroke-width:2;"/>
   </g>
   <g id="line2d_98">
    <path clip-path="url(#paa7fa46646)" d="M 64.39185 175.365168 
L 155.551388 135.195239 
L 246.710925 112.072593 
L 337.870463 113.19695 
L 429.03 170.564045 
" style="fill:none;stroke:#d3d3d3;stroke-linecap:round;stroke-width:2;"/>
   </g>
   <g id="line2d_99">
    <path clip-path="url(#paa7fa46646)" d="M 64.39185 124.744522 
L 155.551388 153.045638 
L 246.710925 152.999676 
L 337.870463 177.532025 
L 429.03 157.667836 
" style="fill:none;stroke:#d3d3d3;stroke-linecap:round;stroke-width:2;"/>
   </g>
   <g id="line2d_100">
    <path clip-path="url(#paa7fa46646)" d="M 64.39185 165.523779 
L 155.551388 133.141239 
L 246.710925 135.941201 
L 337.870463 164.209341 
L 429.03 170.711178 
" style="fill:none;stroke:#d3d3d3;stroke-linecap:round;stroke-width:2;"/>
   </g>
   <g id="line2d_101">
    <path clip-path="url(#paa7fa46646)" d="M 64.39185 134.748524 
L 155.551388 138.455708 
L 246.710925 102.148233 
L 337.870463 168.103513 
L 429.03 171.738613 
" style="fill:none;stroke:#d3d3d3;stroke-linecap:round;stroke-width:2;"/>
   </g>
   <g id="line2d_102">
    <path clip-path="url(#paa7fa46646)" d="M 64.39185 171.821023 
L 155.551388 113.811393 
L 246.710925 150.782138 
L 337.870463 167.1962 
L 429.03 170.634311 
" style="fill:none;stroke:#d3d3d3;stroke-linecap:round;stroke-width:2;"/>
   </g>
   <g id="line2d_103">
    <path clip-path="url(#paa7fa46646)" d="M 64.39185 167.007938 
L 155.551388 110.210698 
L 246.710925 101.438623 
L 337.870463 168.084269 
L 429.03 165.252986 
" style="fill:none;stroke:#d3d3d3;stroke-linecap:round;stroke-width:2;"/>
   </g>
   <g id="line2d_104">
    <path clip-path="url(#paa7fa46646)" d="M 64.39185 131.132706 
L 155.551388 140.823793 
L 246.710925 166.015436 
L 337.870463 167.041799 
L 429.03 170.730377 
" style="fill:none;stroke:#d3d3d3;stroke-linecap:round;stroke-width:2;"/>
   </g>
   <g id="line2d_105">
    <path clip-path="url(#paa7fa46646)" d="M 64.39185 169.431278 
L 155.551388 155.678812 
L 246.710925 147.952722 
L 337.870463 174.318378 
L 429.03 30.923201 
" style="fill:none;stroke:#d3d3d3;stroke-linecap:round;stroke-width:2;"/>
   </g>
   <g id="line2d_106">
    <path clip-path="url(#paa7fa46646)" d="M 64.39185 115.657301 
L 155.551388 156.453985 
L 246.710925 167.93104 
L 337.870463 96.288144 
L 429.03 170.468074 
" style="fill:none;stroke:#d3d3d3;stroke-linecap:round;stroke-width:2;"/>
   </g>
   <g id="line2d_107">
    <path clip-path="url(#paa7fa46646)" d="M 64.39185 53.367082 
L 155.551388 157.261658 
L 246.710925 171.907476 
L 337.870463 166.659024 
L 429.03 170.773391 
" style="fill:none;stroke:#d3d3d3;stroke-linecap:round;stroke-width:2;"/>
   </g>
   <g id="line2d_108">
    <path clip-path="url(#paa7fa46646)" d="M 64.39185 176.463355 
L 155.551388 103.628346 
L 246.710925 16.92 
L 337.870463 168.091015 
L 429.03 170.708559 
" style="fill:none;stroke:#d3d3d3;stroke-linecap:round;stroke-width:2;"/>
   </g>
   <g id="line2d_109">
    <path clip-path="url(#paa7fa46646)" d="M 64.39185 146.926761 
L 155.551388 158.737852 
L 246.710925 154.374925 
L 337.870463 178.120496 
L 429.03 47.768627 
" style="fill:none;stroke:#d3d3d3;stroke-linecap:round;stroke-width:2;"/>
   </g>
   <g id="line2d_110">
    <path clip-path="url(#paa7fa46646)" d="M 64.39185 178.391084 
L 155.551388 140.021389 
L 246.710925 108.073138 
L 337.870463 177.536735 
L 429.03 130.17861 
" style="fill:none;stroke:#d3d3d3;stroke-linecap:round;stroke-width:2;"/>
   </g>
   <g id="line2d_111">
    <path clip-path="url(#paa7fa46646)" d="M 64.39185 165.867145 
L 155.551388 131.69394 
L 246.710925 142.298547 
L 337.870463 177.739266 
L 429.03 143.069692 
" style="fill:none;stroke:#d3d3d3;stroke-linecap:round;stroke-width:2;"/>
   </g>
   <g id="line2d_112">
    <path clip-path="url(#paa7fa46646)" d="M 64.39185 41.399186 
L 155.551388 178.010533 
L 246.710925 165.826356 
L 337.870463 173.064691 
L 429.03 55.155375 
" style="fill:none;stroke:#d3d3d3;stroke-linecap:round;stroke-width:2;"/>
   </g>
   <g id="line2d_113">
    <path clip-path="url(#paa7fa46646)" d="M 64.39185 132.164052 
L 155.551388 154.192562 
L 246.710925 169.552361 
L 337.870463 177.295619 
L 429.03 152.807098 
" style="fill:none;stroke:#d3d3d3;stroke-linecap:round;stroke-width:2;"/>
   </g>
   <g id="line2d_114">
    <path clip-path="url(#paa7fa46646)" d="M 64.39185 46.545463 
L 155.551388 178.7149 
L 246.710925 164.728124 
L 337.870463 76.720446 
L 429.03 57.534768 
" style="fill:none;stroke:#d3d3d3;stroke-linecap:round;stroke-width:2;"/>
   </g>
   <g id="line2d_115">
    <path clip-path="url(#paa7fa46646)" d="M 64.39185 176.025475 
L 155.551388 133.507365 
L 246.710925 116.376471 
L 337.870463 176.385624 
L 429.03 155.696698 
" style="fill:none;stroke:#d3d3d3;stroke-linecap:round;stroke-width:2;"/>
   </g>
   <g id="line2d_116">
    <path clip-path="url(#paa7fa46646)" d="M 64.39185 62.616264 
L 155.551388 178.014728 
L 246.710925 161.207454 
L 337.870463 76.327051 
L 429.03 48.287479 
" style="fill:none;stroke:#d3d3d3;stroke-linecap:round;stroke-width:2;"/>
   </g>
   <g id="line2d_117">
    <path clip-path="url(#paa7fa46646)" d="M 64.39185 170.939366 
L 155.551388 155.157763 
L 246.710925 165.080741 
L 337.870463 170.506238 
L 429.03 120.095636 
" style="fill:none;stroke:#d3d3d3;stroke-linecap:round;stroke-width:2;"/>
   </g>
   <g id="line2d_118">
    <path clip-path="url(#paa7fa46646)" d="M 64.39185 121.511162 
L 155.551388 155.944907 
L 246.710925 149.08544 
L 337.870463 133.736098 
L 429.03 170.571733 
" style="fill:none;stroke:#d3d3d3;stroke-linecap:round;stroke-width:2;"/>
   </g>
   <g id="line2d_119">
    <path clip-path="url(#paa7fa46646)" d="M 64.39185 117.319701 
L 155.551388 154.732391 
L 246.710925 145.289191 
L 337.870463 168.110791 
L 429.03 170.7298 
" style="fill:none;stroke:#d3d3d3;stroke-linecap:round;stroke-width:2;"/>
   </g>
   <g id="line2d_120">
    <path clip-path="url(#paa7fa46646)" d="M 64.39185 53.151535 
L 155.551388 177.658812 
L 246.710925 164.440474 
L 337.870463 156.031428 
L 429.03 51.989236 
" style="fill:none;stroke:#d3d3d3;stroke-linecap:round;stroke-width:2;"/>
   </g>
   <g id="line2d_121">
    <path clip-path="url(#paa7fa46646)" d="M 64.39185 155.253009 
L 155.551388 140.803199 
L 246.710925 151.740808 
L 337.870463 177.280204 
L 429.03 153.262772 
" style="fill:none;stroke:#d3d3d3;stroke-linecap:round;stroke-width:2;"/>
   </g>
   <g id="line2d_122">
    <path clip-path="url(#paa7fa46646)" d="M 64.39185 175.474902 
L 155.551388 134.747514 
L 246.710925 120.791048 
L 337.870463 175.336433 
L 429.03 155.913206 
" style="fill:none;stroke:#d3d3d3;stroke-linecap:round;stroke-width:2;"/>
   </g>
   <g id="line2d_123">
    <path clip-path="url(#paa7fa46646)" d="M 64.39185 153.349944 
L 155.551388 154.419198 
L 246.710925 143.595782 
L 337.870463 177.688259 
L 429.03 36.919114 
" style="fill:none;stroke:#d3d3d3;stroke-linecap:round;stroke-width:2;"/>
   </g>
   <g id="line2d_124">
    <path clip-path="url(#paa7fa46646)" d="M 64.39185 115.025958 
L 155.551388 139.466281 
L 246.710925 156.414863 
L 337.870463 168.096537 
L 429.03 171.729218 
" style="fill:none;stroke:#d3d3d3;stroke-linecap:round;stroke-width:2;"/>
   </g>
   <g id="line2d_125">
    <path clip-path="url(#paa7fa46646)" d="M 64.39185 164.551623 
L 155.551388 135.93548 
L 246.710925 158.208444 
L 337.870463 177.015362 
L 429.03 153.523352 
" style="fill:none;stroke:#d3d3d3;stroke-linecap:round;stroke-width:2;"/>
   </g>
   <g id="line2d_126">
    <path clip-path="url(#paa7fa46646)" d="M 64.39185 164.117533 
L 155.551388 130.690889 
L 246.710925 165.415082 
L 337.870463 176.517445 
L 429.03 154.553837 
" style="fill:none;stroke:#d3d3d3;stroke-linecap:round;stroke-width:2;"/>
   </g>
   <g id="line2d_127">
    <path clip-path="url(#paa7fa46646)" d="M 64.39185 167.945395 
L 155.551388 120.175502 
L 246.710925 164.263202 
L 337.870463 163.773499 
L 429.03 170.90072 
" style="fill:none;stroke:#d3d3d3;stroke-linecap:round;stroke-width:2;"/>
   </g>
   <g id="line2d_128">
    <path clip-path="url(#paa7fa46646)" d="M 64.39185 32.021076 
L 155.551388 65.99358 
L 246.710925 166.779901 
L 337.870463 175.619215 
L 429.03 164.909804 
" style="fill:none;stroke:#d3d3d3;stroke-linecap:round;stroke-width:2;"/>
   </g>
   <g id="line2d_129">
    <path clip-path="url(#paa7fa46646)" d="M 64.39185 118.868843 
L 155.551388 49.149335 
L 246.710925 143.936361 
L 337.870463 139.86842 
L 429.03 176.799997 
" style="fill:none;stroke:#d3d3d3;stroke-linecap:round;stroke-width:2;"/>
   </g>
   <g id="line2d_130">
    <path clip-path="url(#paa7fa46646)" d="M 64.39185 163.970622 
L 155.551388 112.589303 
L 246.710925 153.171869 
L 337.870463 176.512957 
L 429.03 157.516513 
" style="fill:none;stroke:#d3d3d3;stroke-linecap:round;stroke-width:2;"/>
   </g>
   <g id="line2d_131">
    <path clip-path="url(#paa7fa46646)" d="M 64.39185 160.390332 
L 155.551388 135.95491 
L 246.710925 166.259458 
L 337.870463 168.062418 
L 429.03 168.496132 
" style="fill:none;stroke:#d3d3d3;stroke-linecap:round;stroke-width:2;"/>
   </g>
   <g id="line2d_132">
    <path clip-path="url(#paa7fa46646)" d="M 64.39185 164.826953 
L 155.551388 133.247498 
L 246.710925 167.258089 
L 337.870463 166.2623 
L 429.03 164.21172 
" style="fill:none;stroke:#d3d3d3;stroke-linecap:round;stroke-width:2;"/>
   </g>
   <g id="line2d_133">
    <path clip-path="url(#paa7fa46646)" d="M 64.39185 165.135286 
L 155.551388 154.205406 
L 246.710925 155.038902 
L 337.870463 171.327968 
L 429.03 122.262327 
" style="fill:none;stroke:#d3d3d3;stroke-linecap:round;stroke-width:2;"/>
   </g>
   <g id="line2d_134">
    <path clip-path="url(#paa7fa46646)" d="M 64.39185 45.907903 
L 155.551388 59.51266 
L 246.710925 155.195515 
L 337.870463 140.00487 
L 429.03 177.775673 
" style="fill:none;stroke:#d3d3d3;stroke-linecap:round;stroke-width:2;"/>
   </g>
   <g id="line2d_135">
    <path clip-path="url(#paa7fa46646)" d="M 64.39185 142.829489 
L 155.551388 77.668121 
L 246.710925 146.28985 
L 337.870463 175.256501 
L 429.03 164.030235 
" style="fill:none;stroke:#d3d3d3;stroke-linecap:round;stroke-width:2;"/>
   </g>
   <g id="line2d_136">
    <path clip-path="url(#paa7fa46646)" d="M 64.39185 175.479329 
L 155.551388 129.291713 
L 246.710925 134.575345 
L 337.870463 175.970695 
L 429.03 157.18909 
" style="fill:none;stroke:#d3d3d3;stroke-linecap:round;stroke-width:2;"/>
   </g>
   <g id="line2d_137">
    <path clip-path="url(#paa7fa46646)" d="M 64.39185 153.515626 
L 155.551388 142.411378 
L 246.710925 165.847229 
L 337.870463 166.065838 
L 429.03 169.682502 
" style="fill:none;stroke:#d3d3d3;stroke-linecap:round;stroke-width:2;"/>
   </g>
   <g id="line2d_138">
    <path clip-path="url(#paa7fa46646)" d="M 64.39185 169.614732 
L 155.551388 123.572334 
L 246.710925 168.976176 
L 337.870463 174.544207 
L 429.03 156.683516 
" style="fill:none;stroke:#d3d3d3;stroke-linecap:round;stroke-width:2;"/>
   </g>
   <g id="line2d_139">
    <path clip-path="url(#paa7fa46646)" d="M 64.39185 173.322611 
L 155.551388 131.653398 
L 246.710925 139.053774 
L 337.870463 176.70494 
L 429.03 156.985829 
" style="fill:none;stroke:#d3d3d3;stroke-linecap:round;stroke-width:2;"/>
   </g>
   <g id="line2d_140">
    <path clip-path="url(#paa7fa46646)" d="M 64.39185 132.968727 
L 155.551388 69.251719 
L 246.710925 153.587098 
L 337.870463 176.12252 
L 429.03 163.919843 
" style="fill:none;stroke:#d3d3d3;stroke-linecap:round;stroke-width:2;"/>
   </g>
   <g id="line2d_141">
    <path clip-path="url(#paa7fa46646)" d="M 64.39185 176.979758 
L 155.551388 145.978174 
L 246.710925 149.682423 
L 337.870463 163.350154 
L 429.03 125.3266 
" style="fill:none;stroke:#d3d3d3;stroke-linecap:round;stroke-width:2;"/>
   </g>
   <g id="line2d_142">
    <path clip-path="url(#paa7fa46646)" d="M 64.39185 119.201432 
L 155.551388 158.707357 
L 246.710925 172.268102 
L 337.870463 166.983768 
L 429.03 167.942277 
" style="fill:none;stroke:#d3d3d3;stroke-linecap:round;stroke-width:2;"/>
   </g>
   <g id="line2d_143">
    <path clip-path="url(#paa7fa46646)" d="M 64.39185 16.92 
L 155.551388 56.113171 
L 246.710925 167.969539 
L 337.870463 137.806499 
L 429.03 177.252074 
" style="fill:none;stroke:#d3d3d3;stroke-linecap:round;stroke-width:2;"/>
   </g>
   <g id="line2d_144">
    <path clip-path="url(#paa7fa46646)" d="M 64.39185 109.824236 
L 155.551388 155.721699 
L 246.710925 163.223528 
L 337.870463 153.261143 
L 429.03 171.726767 
" style="fill:none;stroke:#d3d3d3;stroke-linecap:round;stroke-width:2;"/>
   </g>
   <g id="line2d_145">
    <path clip-path="url(#paa7fa46646)" d="M 64.39185 63.674175 
L 155.551388 82.066112 
L 246.710925 92.749999 
L 337.870463 140.509384 
L 429.03 177.551425 
" style="fill:none;stroke:#d3d3d3;stroke-linecap:round;stroke-width:2;"/>
   </g>
   <g id="line2d_146">
    <path clip-path="url(#paa7fa46646)" d="M 64.39185 106.815009 
L 155.551388 38.113074 
L 246.710925 174.733121 
L 337.870463 138.696494 
L 429.03 178.687697 
" style="fill:none;stroke:#d3d3d3;stroke-linecap:round;stroke-width:2;"/>
   </g>
   <g id="line2d_147">
    <path clip-path="url(#paa7fa46646)" d="M 64.39185 61.127203 
L 155.551388 92.644941 
L 246.710925 100.217202 
L 337.870463 137.664119 
L 429.03 176.664585 
" style="fill:none;stroke:#d3d3d3;stroke-linecap:round;stroke-width:2;"/>
   </g>
   <g id="line2d_148">
    <path clip-path="url(#paa7fa46646)" d="M 64.39185 164.080566 
L 155.551388 130.224874 
L 246.710925 166.361211 
L 337.870463 167.548296 
L 429.03 165.734818 
" style="fill:none;stroke:#d3d3d3;stroke-linecap:round;stroke-width:2;"/>
   </g>
   <g id="line2d_149">
    <path clip-path="url(#paa7fa46646)" d="M 64.39185 153.293419 
L 155.551388 155.683485 
L 246.710925 163.884554 
L 337.870463 176.295104 
L 429.03 156.480034 
" style="fill:none;stroke:#d3d3d3;stroke-linecap:round;stroke-width:2;"/>
   </g>
   <g id="line2d_150">
    <path clip-path="url(#paa7fa46646)" d="M 64.39185 120.238601 
L 155.551388 42.748267 
L 246.710925 164.856565 
L 337.870463 176.155673 
L 429.03 164.311749 
" style="fill:none;stroke:#d3d3d3;stroke-linecap:round;stroke-width:2;"/>
   </g>
   <g id="line2d_151">
    <path clip-path="url(#paa7fa46646)" d="M 64.39185 167.163929 
L 155.551388 154.35115 
L 246.710925 160.01534 
L 337.870463 34.287556 
L 429.03 155.901882 
" style="fill:none;stroke:#d3d3d3;stroke-linecap:round;stroke-width:2;"/>
   </g>
   <g id="line2d_152">
    <path clip-path="url(#paa7fa46646)" d="M 64.39185 163.951512 
L 155.551388 150.497891 
L 246.710925 164.062586 
L 337.870463 176.626004 
L 429.03 148.373774 
" style="fill:none;stroke:#d3d3d3;stroke-linecap:round;stroke-width:2;"/>
   </g>
   <g id="line2d_153">
    <path clip-path="url(#paa7fa46646)" d="M 64.39185 103.607657 
L 155.551388 158.999133 
L 246.710925 174.433841 
L 337.870463 177.209467 
L 429.03 156.542817 
" style="fill:none;stroke:#d3d3d3;stroke-linecap:round;stroke-width:2;"/>
   </g>
   <g id="line2d_154">
    <path clip-path="url(#paa7fa46646)" d="M 64.39185 76.713375 
L 155.551388 69.81703 
L 246.710925 166.612656 
L 337.870463 173.898135 
L 429.03 163.013131 
" style="fill:none;stroke:#d3d3d3;stroke-linecap:round;stroke-width:2;"/>
   </g>
   <g id="line2d_155">
    <path clip-path="url(#paa7fa46646)" d="M 64.39185 166.03133 
L 155.551388 154.497837 
L 246.710925 165.566506 
L 337.870463 174.250765 
L 429.03 16.92 
" style="fill:none;stroke:#d3d3d3;stroke-linecap:round;stroke-width:2;"/>
   </g>
   <g id="line2d_156">
    <path clip-path="url(#paa7fa46646)" d="M 64.39185 164.312725 
L 155.551388 136.89296 
L 246.710925 167.262323 
L 337.870463 154.205176 
L 429.03 171.015605 
" style="fill:none;stroke:#d3d3d3;stroke-linecap:round;stroke-width:2;"/>
   </g>
   <g id="line2d_157">
    <path clip-path="url(#paa7fa46646)" d="M 64.39185 163.832998 
L 155.551388 116.592585 
L 246.710925 139.319398 
L 337.870463 168.081433 
L 429.03 171.563799 
" style="fill:none;stroke:#d3d3d3;stroke-linecap:round;stroke-width:2;"/>
   </g>
   <g id="line2d_158">
    <path clip-path="url(#paa7fa46646)" d="M 64.39185 152.91707 
L 155.551388 154.263426 
L 246.710925 166.800798 
L 337.870463 69.050384 
L 429.03 164.572314 
" style="fill:none;stroke:#d3d3d3;stroke-linecap:round;stroke-width:2;"/>
   </g>
   <g id="line2d_159">
    <path clip-path="url(#paa7fa46646)" d="M 64.39185 137.537943 
L 155.551388 155.042825 
L 246.710925 173.037998 
L 337.870463 128.910322 
L 429.03 165.548097 
" style="fill:none;stroke:#d3d3d3;stroke-linecap:round;stroke-width:2;"/>
   </g>
   <g id="line2d_160">
    <path clip-path="url(#paa7fa46646)" d="M 64.39185 107.475634 
L 155.551388 37.629536 
L 246.710925 152.236865 
L 337.870463 138.776333 
L 429.03 177.319359 
" style="fill:none;stroke:#d3d3d3;stroke-linecap:round;stroke-width:2;"/>
   </g>
   <g id="line2d_161">
    <path clip-path="url(#paa7fa46646)" d="M 64.39185 130.096066 
L 155.551388 40.701052 
L 246.710925 102.338356 
L 337.870463 138.731153 
L 429.03 177.489722 
" style="fill:none;stroke:#d3d3d3;stroke-linecap:round;stroke-width:2;"/>
   </g>
   <g id="line2d_162">
    <path clip-path="url(#paa7fa46646)" d="M 64.39185 113.232277 
L 155.551388 140.017279 
L 246.710925 177.593511 
L 337.870463 168.087383 
L 429.03 168.306954 
" style="fill:none;stroke:#d3d3d3;stroke-linecap:round;stroke-width:2;"/>
   </g>
   <g id="line2d_163">
    <path clip-path="url(#paa7fa46646)" d="M 64.39185 165.238682 
L 155.551388 154.311473 
L 246.710925 163.211046 
L 337.870463 176.976868 
L 429.03 25.236368 
" style="fill:none;stroke:#d3d3d3;stroke-linecap:round;stroke-width:2;"/>
   </g>
   <g id="line2d_164">
    <path clip-path="url(#paa7fa46646)" d="M 64.39185 175.54736 
L 155.551388 138.566867 
L 246.710925 132.996348 
L 337.870463 176.924271 
L 429.03 143.652851 
" style="fill:none;stroke:#d3d3d3;stroke-linecap:round;stroke-width:2;"/>
   </g>
   <g id="line2d_165">
    <path clip-path="url(#paa7fa46646)" d="M 64.39185 178.64539 
L 155.551388 128.489951 
L 246.710925 121.416454 
L 337.870463 177.313142 
L 429.03 157.066576 
" style="fill:none;stroke:#d3d3d3;stroke-linecap:round;stroke-width:2;"/>
   </g>
   <g id="line2d_166">
    <path clip-path="url(#paa7fa46646)" d="M 64.39185 165.167281 
L 155.551388 135.306875 
L 246.710925 156.671158 
L 337.870463 168.063357 
L 429.03 167.361688 
" style="fill:none;stroke:#d3d3d3;stroke-linecap:round;stroke-width:2;"/>
   </g>
   <g id="line2d_167">
    <path clip-path="url(#paa7fa46646)" d="M 64.39185 145.954339 
L 155.551388 154.885332 
L 246.710925 163.442647 
L 337.870463 167.990875 
L 429.03 167.921875 
" style="fill:none;stroke:#d3d3d3;stroke-linecap:round;stroke-width:2;"/>
   </g>
   <g id="line2d_168">
    <path clip-path="url(#paa7fa46646)" d="M 64.39185 143.03692 
L 155.551388 158.266375 
L 246.710925 146.17159 
L 337.870463 177.659651 
L 429.03 133.724416 
" style="fill:none;stroke:#d3d3d3;stroke-linecap:round;stroke-width:2;"/>
   </g>
   <g id="line2d_169">
    <path clip-path="url(#paa7fa46646)" d="M 64.39185 164.595425 
L 155.551388 143.7835 
L 246.710925 169.885262 
L 337.870463 174.78866 
L 429.03 154.562849 
" style="fill:none;stroke:#d3d3d3;stroke-linecap:round;stroke-width:2;"/>
   </g>
   <g id="line2d_170">
    <path clip-path="url(#paa7fa46646)" d="M 64.39185 48.425883 
L 155.551388 67.01105 
L 246.710925 143.182659 
L 337.870463 138.820197 
L 429.03 177.209755 
" style="fill:none;stroke:#d3d3d3;stroke-linecap:round;stroke-width:2;"/>
   </g>
   <g id="line2d_171">
    <path clip-path="url(#paa7fa46646)" d="M 64.39185 164.250922 
L 155.551388 156.668146 
L 246.710925 158.320415 
L 337.870463 163.283738 
L 429.03 136.86844 
" style="fill:none;stroke:#d3d3d3;stroke-linecap:round;stroke-width:2;"/>
   </g>
   <g id="line2d_172">
    <path clip-path="url(#paa7fa46646)" d="M 64.39185 150.843042 
L 155.551388 155.756294 
L 246.710925 169.416192 
L 337.870463 94.829385 
L 429.03 167.518092 
" style="fill:none;stroke:#d3d3d3;stroke-linecap:round;stroke-width:2;"/>
   </g>
   <g id="line2d_173">
    <path clip-path="url(#paa7fa46646)" d="M 64.39185 101.990484 
L 155.551388 41.383805 
L 246.710925 157.642239 
L 337.870463 140.902774 
L 429.03 178.292435 
" style="fill:none;stroke:#d3d3d3;stroke-linecap:round;stroke-width:2;"/>
   </g>
   <g id="line2d_174">
    <path clip-path="url(#paa7fa46646)" d="M 64.39185 57.60581 
L 155.551388 78.155201 
L 246.710925 122.802954 
L 337.870463 140.366549 
L 429.03 177.840365 
" style="fill:none;stroke:#d3d3d3;stroke-linecap:round;stroke-width:2;"/>
   </g>
   <g id="line2d_175">
    <path clip-path="url(#paa7fa46646)" d="M 64.39185 144.580181 
L 155.551388 48.320743 
L 246.710925 134.878063 
L 337.870463 176.074677 
L 429.03 162.990987 
" style="fill:none;stroke:#d3d3d3;stroke-linecap:round;stroke-width:2;"/>
   </g>
   <g id="line2d_176">
    <path clip-path="url(#paa7fa46646)" d="M 64.39185 175.899528 
L 155.551388 136.997412 
L 246.710925 121.368291 
L 337.870463 167.308592 
L 429.03 168.020253 
" style="fill:none;stroke:#d3d3d3;stroke-linecap:round;stroke-width:2;"/>
   </g>
   <g id="line2d_177">
    <path clip-path="url(#paa7fa46646)" d="M 64.39185 164.245081 
L 155.551388 155.529758 
L 246.710925 168.487087 
L 337.870463 35.166006 
L 429.03 144.721064 
" style="fill:none;stroke:#d3d3d3;stroke-linecap:round;stroke-width:2;"/>
   </g>
   <g id="line2d_178">
    <path clip-path="url(#paa7fa46646)" d="M 64.39185 142.841687 
L 155.551388 16.92 
L 246.710925 155.747114 
L 337.870463 173.290186 
L 429.03 163.306988 
" style="fill:none;stroke:#d3d3d3;stroke-linecap:round;stroke-width:2;"/>
   </g>
   <g id="line2d_179">
    <path clip-path="url(#paa7fa46646)" d="M 64.39185 153.087066 
L 155.551388 143.776219 
L 246.710925 152.961468 
L 337.870463 167.946109 
L 429.03 171.737629 
" style="fill:none;stroke:#d3d3d3;stroke-linecap:round;stroke-width:2;"/>
   </g>
   <g id="line2d_180">
    <path clip-path="url(#paa7fa46646)" d="M 64.39185 56.407565 
L 155.551388 177.044498 
L 246.710925 161.062778 
L 337.870463 175.317351 
L 429.03 49.420354 
" style="fill:none;stroke:#ff7f00;stroke-linecap:round;stroke-width:2;"/>
   </g>
   <g id="line2d_181">
    <path clip-path="url(#paa7fa46646)" d="M 64.39185 41.477277 
L 155.551388 177.144514 
L 246.710925 166.443239 
L 337.870463 174.523036 
L 429.03 48.287479 
" style="fill:none;stroke:#ff7f00;stroke-linecap:round;stroke-width:2;"/>
   </g>
   <g id="line2d_182">
    <path clip-path="url(#paa7fa46646)" d="M 64.39185 165.958384 
L 155.551388 138.657685 
L 246.710925 164.221945 
L 337.870463 173.236509 
L 429.03 158.092306 
" style="fill:none;stroke:#ff7f00;stroke-linecap:round;stroke-width:2;"/>
   </g>
   <g id="line2d_183">
    <path clip-path="url(#paa7fa46646)" d="M 64.39185 119.089763 
L 155.551388 161.650661 
L 246.710925 170.087002 
L 337.870463 18.015421 
L 429.03 170.636157 
" style="fill:none;stroke:#ff7f00;stroke-linecap:round;stroke-width:2;"/>
   </g>
   <g id="line2d_184">
    <path clip-path="url(#paa7fa46646)" d="M 64.39185 165.673955 
L 155.551388 137.84383 
L 246.710925 159.288118 
L 337.870463 174.821607 
L 429.03 157.509085 
" style="fill:none;stroke:#ff7f00;stroke-linecap:round;stroke-width:2;"/>
   </g>
   <g id="line2d_185">
    <path clip-path="url(#paa7fa46646)" d="M 64.39185 153.2392 
L 155.551388 147.569771 
L 246.710925 166.28085 
L 337.870463 177.324237 
L 429.03 128.304756 
" style="fill:none;stroke:#ff7f00;stroke-linecap:round;stroke-width:2;"/>
   </g>
   <g id="line2d_186">
    <path clip-path="url(#paa7fa46646)" d="M 64.39185 132.164052 
L 155.551388 154.192562 
L 246.710925 169.552361 
L 337.870463 177.295619 
L 429.03 152.807098 
" style="fill:none;stroke:#ff7f00;stroke-linecap:round;stroke-width:2;"/>
   </g>
   <g id="line2d_187">
    <path clip-path="url(#paa7fa46646)" d="M 64.39185 62.616264 
L 155.551388 178.014728 
L 246.710925 161.207454 
L 337.870463 76.327051 
L 429.03 48.287479 
" style="fill:none;stroke:#ff7f00;stroke-linecap:round;stroke-width:2;"/>
   </g>
   <g id="line2d_188">
    <path clip-path="url(#paa7fa46646)" d="M 64.39185 170.939366 
L 155.551388 155.157763 
L 246.710925 165.080741 
L 337.870463 170.506238 
L 429.03 120.095636 
" style="fill:none;stroke:#ff7f00;stroke-linecap:round;stroke-width:2;"/>
   </g>
   <g id="line2d_189">
    <path clip-path="url(#paa7fa46646)" d="M 64.39185 164.551623 
L 155.551388 135.93548 
L 246.710925 158.208444 
L 337.870463 177.015362 
L 429.03 153.523352 
" style="fill:none;stroke:#ff7f00;stroke-linecap:round;stroke-width:2;"/>
   </g>
   <g id="line2d_190">
    <path clip-path="url(#paa7fa46646)" d="M 64.39185 164.117533 
L 155.551388 130.690889 
L 246.710925 165.415082 
L 337.870463 176.517445 
L 429.03 154.553837 
" style="fill:none;stroke:#ff7f00;stroke-linecap:round;stroke-width:2;"/>
   </g>
   <g id="line2d_191">
    <path clip-path="url(#paa7fa46646)" d="M 64.39185 165.135286 
L 155.551388 154.205406 
L 246.710925 155.038902 
L 337.870463 171.327968 
L 429.03 122.262327 
" style="fill:none;stroke:#ff7f00;stroke-linecap:round;stroke-width:2;"/>
   </g>
   <g id="line2d_192">
    <path clip-path="url(#paa7fa46646)" d="M 64.39185 153.293419 
L 155.551388 155.683485 
L 246.710925 163.884554 
L 337.870463 176.295104 
L 429.03 156.480034 
" style="fill:none;stroke:#ff7f00;stroke-linecap:round;stroke-width:2;"/>
   </g>
   <g id="line2d_193">
    <path clip-path="url(#paa7fa46646)" d="M 64.39185 167.163929 
L 155.551388 154.35115 
L 246.710925 160.01534 
L 337.870463 34.287556 
L 429.03 155.901882 
" style="fill:none;stroke:#ff7f00;stroke-linecap:round;stroke-width:2;"/>
   </g>
   <g id="line2d_194">
    <path clip-path="url(#paa7fa46646)" d="M 64.39185 163.951512 
L 155.551388 150.497891 
L 246.710925 164.062586 
L 337.870463 176.626004 
L 429.03 148.373774 
" style="fill:none;stroke:#ff7f00;stroke-linecap:round;stroke-width:2;"/>
   </g>
   <g id="line2d_195">
    <path clip-path="url(#paa7fa46646)" d="M 64.39185 103.607657 
L 155.551388 158.999133 
L 246.710925 174.433841 
L 337.870463 177.209467 
L 429.03 156.542817 
" style="fill:none;stroke:#ff7f00;stroke-linecap:round;stroke-width:2;"/>
   </g>
   <g id="line2d_196">
    <path clip-path="url(#paa7fa46646)" d="M 64.39185 137.537943 
L 155.551388 155.042825 
L 246.710925 173.037998 
L 337.870463 128.910322 
L 429.03 165.548097 
" style="fill:none;stroke:#ff7f00;stroke-linecap:round;stroke-width:2;"/>
   </g>
   <g id="line2d_197">
    <path clip-path="url(#paa7fa46646)" d="M 64.39185 164.250922 
L 155.551388 156.668146 
L 246.710925 158.320415 
L 337.870463 163.283738 
L 429.03 136.86844 
" style="fill:none;stroke:#ff7f00;stroke-linecap:round;stroke-width:2;"/>
   </g>
   <g id="line2d_198">
    <path clip-path="url(#paa7fa46646)" d="M 64.39185 150.843042 
L 155.551388 155.756294 
L 246.710925 169.416192 
L 337.870463 94.829385 
L 429.03 167.518092 
" style="fill:none;stroke:#ff7f00;stroke-linecap:round;stroke-width:2;"/>
   </g>
   <g id="line2d_199">
    <path clip-path="url(#paa7fa46646)" d="M 64.39185 164.245081 
L 155.551388 155.529758 
L 246.710925 168.487087 
L 337.870463 35.166006 
L 429.03 144.721064 
" style="fill:none;stroke:#ff7f00;stroke-linecap:round;stroke-width:2;"/>
   </g>
   <g id="line2d_200">
    <path clip-path="url(#paa7fa46646)" d="M 64.39185 178.7149 
L 64.39185 16.92 
" style="fill:none;stroke:#1a1a1a;stroke-linecap:round;stroke-width:1.5;"/>
   </g>
   <g id="line2d_201">
    <path clip-path="url(#paa7fa46646)" d="M 155.551388 178.7149 
L 155.551388 16.92 
" style="fill:none;stroke:#1a1a1a;stroke-linecap:round;stroke-width:1.5;"/>
   </g>
   <g id="line2d_202">
    <path clip-path="url(#paa7fa46646)" d="M 246.710925 178.7149 
L 246.710925 16.92 
" style="fill:none;stroke:#1a1a1a;stroke-linecap:round;stroke-width:1.5;"/>
   </g>
   <g id="line2d_203">
    <path clip-path="url(#paa7fa46646)" d="M 337.870463 178.7149 
L 337.870463 16.92 
" style="fill:none;stroke:#1a1a1a;stroke-linecap:round;stroke-width:1.5;"/>
   </g>
   <g id="line2d_204">
    <path clip-path="url(#paa7fa46646)" d="M 429.03 178.7149 
L 429.03 16.92 
" style="fill:none;stroke:#1a1a1a;stroke-linecap:round;stroke-width:1.5;"/>
   </g>
   <g id="line2d_205">
    <path clip-path="url(#paa7fa46646)" d="M 64.39185 178.7149 
L 64.39185 16.92 
" style="fill:none;stroke:#1a1a1a;stroke-linecap:round;stroke-width:1.5;"/>
   </g>
   <g id="line2d_206">
    <path clip-path="url(#paa7fa46646)" d="M 155.551388 178.7149 
L 155.551388 16.92 
" style="fill:none;stroke:#1a1a1a;stroke-linecap:round;stroke-width:1.5;"/>
   </g>
   <g id="line2d_207">
    <path clip-path="url(#paa7fa46646)" d="M 246.710925 178.7149 
L 246.710925 16.92 
" style="fill:none;stroke:#1a1a1a;stroke-linecap:round;stroke-width:1.5;"/>
   </g>
   <g id="line2d_208">
    <path clip-path="url(#paa7fa46646)" d="M 337.870463 178.7149 
L 337.870463 16.92 
" style="fill:none;stroke:#1a1a1a;stroke-linecap:round;stroke-width:1.5;"/>
   </g>
   <g id="line2d_209">
    <path clip-path="url(#paa7fa46646)" d="M 429.03 178.7149 
L 429.03 16.92 
" style="fill:none;stroke:#1a1a1a;stroke-linecap:round;stroke-width:1.5;"/>
   </g>
   <g id="line2d_210">
    <path clip-path="url(#paa7fa46646)" d="M 64.39185 141.022931 
L 155.551388 133.19957 
L 246.710925 172.031809 
L 337.870463 172.389737 
L 429.03 169.92371 
" style="fill:none;stroke:#377eb8;stroke-linecap:round;stroke-width:2;"/>
   </g>
   <g id="line2d_211">
    <path clip-path="url(#paa7fa46646)" d="M 64.39185 144.616434 
L 155.551388 134.198345 
L 246.710925 172.148874 
L 337.870463 175.42696 
L 429.03 163.000033 
" style="fill:none;stroke:#377eb8;stroke-linecap:round;stroke-width:2;"/>
   </g>
   <g id="line2d_212">
    <path clip-path="url(#paa7fa46646)" d="M 64.39185 139.457166 
L 155.551388 120.050351 
L 246.710925 175.198349 
L 337.870463 160.651025 
L 429.03 176.443053 
" style="fill:none;stroke:#377eb8;stroke-linecap:round;stroke-width:2;"/>
   </g>
   <g id="patch_3">
    <path d="M 13.342509 43.19044 
Q 13.342509 97.818154 13.342509 151.327835 
" style="fill:none;stroke:#000000;stroke-linecap:round;"/>
    <path d="M 15.742509 146.527835 
L 13.342509 151.327835 
L 10.942509 146.527835 
" style="fill:none;stroke:#000000;stroke-linecap:round;"/>
   </g>
   <g id="patch_4">
    <path d="M 13.342509 43.19044 
Q 13.342509 97.818154 13.342509 151.327835 
" style="fill:none;stroke:#000000;stroke-linecap:round;"/>
    <path d="M 15.742509 146.527835 
L 13.342509 151.327835 
L 10.942509 146.527835 
" style="fill:none;stroke:#000000;stroke-linecap:round;"/>
   </g>
   <g id="text_13">
    <!-- (a) -->
    <g style="fill:#262626;" transform="translate(67.308955 25.009745)scale(0.13 -0.13)">
     <defs>
      <path d="M 29.9375 -21.046875 
L 20.515625 -21.046875 
Q 13.03125 -9.765625 9.125 2.390625 
Q 5.21875 14.546875 5.21875 25.921875 
Q 5.21875 40.046875 10.0625 52.640625 
Q 14.265625 63.578125 20.703125 72.796875 
L 30.078125 72.796875 
Q 23.390625 58.015625 20.875 47.625 
Q 18.359375 37.25 18.359375 25.640625 
Q 18.359375 17.625 19.84375 9.21875 
Q 21.34375 0.828125 23.921875 -6.734375 
Q 25.640625 -11.71875 29.9375 -21.046875 
z
" id="Arial-BoldMT-40"/>
      <path d="M 17.4375 36.03125 
L 4.984375 38.28125 
Q 7.078125 45.796875 12.203125 49.40625 
Q 17.328125 53.03125 27.4375 53.03125 
Q 36.625 53.03125 41.109375 50.859375 
Q 45.609375 48.6875 47.4375 45.34375 
Q 49.265625 42 49.265625 33.0625 
L 49.125 17.046875 
Q 49.125 10.203125 49.78125 6.953125 
Q 50.4375 3.71875 52.25 0 
L 38.671875 0 
Q 38.140625 1.375 37.359375 4.046875 
Q 37.015625 5.28125 36.859375 5.671875 
Q 33.34375 2.25 29.34375 0.53125 
Q 25.34375 -1.171875 20.796875 -1.171875 
Q 12.796875 -1.171875 8.171875 3.171875 
Q 3.5625 7.515625 3.5625 14.15625 
Q 3.5625 18.5625 5.65625 22 
Q 7.765625 25.4375 11.546875 27.265625 
Q 15.328125 29.109375 22.46875 30.46875 
Q 32.078125 32.28125 35.796875 33.84375 
L 35.796875 35.203125 
Q 35.796875 39.15625 33.84375 40.84375 
Q 31.890625 42.53125 26.46875 42.53125 
Q 22.796875 42.53125 20.75 41.09375 
Q 18.703125 39.65625 17.4375 36.03125 
z
M 35.796875 24.90625 
Q 33.15625 24.03125 27.4375 22.796875 
Q 21.734375 21.578125 19.96875 20.40625 
Q 17.28125 18.5 17.28125 15.578125 
Q 17.28125 12.703125 19.421875 10.59375 
Q 21.578125 8.5 24.90625 8.5 
Q 28.609375 8.5 31.984375 10.9375 
Q 34.46875 12.796875 35.25 15.484375 
Q 35.796875 17.234375 35.796875 22.171875 
z
" id="Arial-BoldMT-97"/>
      <path d="M 3.375 -21.046875 
Q 7.421875 -12.359375 9.078125 -7.71875 
Q 10.75 -3.078125 12.15625 2.96875 
Q 13.578125 9.03125 14.25 14.46875 
Q 14.9375 19.921875 14.9375 25.640625 
Q 14.9375 37.25 12.453125 47.625 
Q 9.96875 58.015625 3.265625 72.796875 
L 12.59375 72.796875 
Q 19.96875 62.3125 24.046875 50.53125 
Q 28.125 38.765625 28.125 26.65625 
Q 28.125 16.453125 24.90625 4.78125 
Q 21.234375 -8.296875 12.84375 -21.046875 
z
" id="Arial-BoldMT-41"/>
     </defs>
     <use xlink:href="#Arial-BoldMT-40"/>
     <use x="33.300781" xlink:href="#Arial-BoldMT-97"/>
     <use x="88.916016" xlink:href="#Arial-BoldMT-41"/>
    </g>
   </g>
   <path clip-path="url(#paa7fa46646)" d="M 64.39185 170.939366 
L 155.551388 155.157763 
L 246.710925 165.080741 
L 337.870463 170.506238 
L 429.03 120.095636 
" style="fill:none;stroke:#1a1a1a;stroke-linecap:round;stroke-width:5;"/>
   <path clip-path="url(#paa7fa46646)" d="M 64.39185 170.939366 
L 155.551388 155.157763 
L 246.710925 165.080741 
L 337.870463 170.506238 
L 429.03 120.095636 
" style="fill:none;stroke:#ff7f00;stroke-linecap:round;stroke-width:2;"/>
   <path clip-path="url(#paa7fa46646)" d="M 64.39185 144.616434 
L 155.551388 134.198345 
L 246.710925 172.148874 
L 337.870463 175.42696 
L 429.03 163.000033 
" style="fill:none;stroke:#1a1a1a;stroke-linecap:round;stroke-width:5;"/>
   <path clip-path="url(#paa7fa46646)" d="M 64.39185 144.616434 
L 155.551388 134.198345 
L 246.710925 172.148874 
L 337.870463 175.42696 
L 429.03 163.000033 
" style="fill:none;stroke:#377eb8;stroke-linecap:round;stroke-width:2;"/>
   <g id="legend_1">
    <g id="patch_5">
     <path d="M 130.261316 221.75337 
L 363.160534 221.75337 
Q 365.360534 221.75337 365.360534 219.55337 
L 365.360534 204.830558 
Q 365.360534 202.630558 363.160534 202.630558 
L 130.261316 202.630558 
Q 128.061316 202.630558 128.061316 204.830558 
L 128.061316 219.55337 
Q 128.061316 221.75337 130.261316 221.75337 
z
" style="fill:#ffffff;opacity:0.8;stroke:#cccccc;stroke-linejoin:miter;"/>
    </g>
    <g id="line2d_213">
     <path d="M 132.461316 211.188214 
L 154.461316 211.188214 
" style="fill:none;stroke:#ff7f00;stroke-linecap:round;stroke-width:2;"/>
    </g>
    <g id="line2d_214"/>
    <g id="text_14">
     <!-- Release Policy -->
     <g style="fill:#262626;" transform="translate(163.261316 215.038214)scale(0.11 -0.11)">
      <defs>
       <path d="M 7.71875 0 
L 7.71875 71.578125 
L 34.71875 71.578125 
Q 41.84375 71.578125 45.609375 70.90625 
Q 50.875 70.015625 54.4375 67.546875 
Q 58.015625 65.09375 60.1875 60.640625 
Q 62.359375 56.203125 62.359375 50.875 
Q 62.359375 41.75 56.546875 35.421875 
Q 50.734375 29.109375 35.546875 29.109375 
L 17.1875 29.109375 
L 17.1875 0 
z
M 17.1875 37.546875 
L 35.6875 37.546875 
Q 44.875 37.546875 48.734375 40.96875 
Q 52.59375 44.390625 52.59375 50.59375 
Q 52.59375 55.078125 50.3125 58.265625 
Q 48.046875 61.46875 44.34375 62.5 
Q 41.9375 63.140625 35.5 63.140625 
L 17.1875 63.140625 
z
" id="ArialMT-80"/>
      </defs>
      <use xlink:href="#ArialMT-82"/>
      <use x="72.216797" xlink:href="#ArialMT-101"/>
      <use x="127.832031" xlink:href="#ArialMT-108"/>
      <use x="150.048828" xlink:href="#ArialMT-101"/>
      <use x="205.664062" xlink:href="#ArialMT-97"/>
      <use x="261.279297" xlink:href="#ArialMT-115"/>
      <use x="311.279297" xlink:href="#ArialMT-101"/>
      <use x="366.894531" xlink:href="#ArialMT-32"/>
      <use x="394.677734" xlink:href="#ArialMT-80"/>
      <use x="461.376953" xlink:href="#ArialMT-111"/>
      <use x="516.992188" xlink:href="#ArialMT-108"/>
      <use x="539.208984" xlink:href="#ArialMT-105"/>
      <use x="561.425781" xlink:href="#ArialMT-99"/>
      <use x="611.425781" xlink:href="#ArialMT-121"/>
     </g>
    </g>
    <g id="line2d_215">
     <path d="M 258.016003 211.188214 
L 280.016003 211.188214 
" style="fill:none;stroke:#377eb8;stroke-linecap:round;stroke-width:2;"/>
    </g>
    <g id="line2d_216"/>
    <g id="text_15">
     <!-- Target Storage -->
     <g style="fill:#262626;" transform="translate(288.816003 215.038214)scale(0.11 -0.11)">
      <defs>
       <path d="M 25.921875 0 
L 25.921875 63.140625 
L 2.34375 63.140625 
L 2.34375 71.578125 
L 59.078125 71.578125 
L 59.078125 63.140625 
L 35.40625 63.140625 
L 35.40625 0 
z
" id="ArialMT-84"/>
      </defs>
      <use xlink:href="#ArialMT-84"/>
      <use x="49.958984" xlink:href="#ArialMT-97"/>
      <use x="105.574219" xlink:href="#ArialMT-114"/>
      <use x="138.875" xlink:href="#ArialMT-103"/>
      <use x="194.490234" xlink:href="#ArialMT-101"/>
      <use x="250.105469" xlink:href="#ArialMT-116"/>
      <use x="277.888672" xlink:href="#ArialMT-32"/>
      <use x="305.671875" xlink:href="#ArialMT-83"/>
      <use x="372.371094" xlink:href="#ArialMT-116"/>
      <use x="400.154297" xlink:href="#ArialMT-111"/>
      <use x="455.769531" xlink:href="#ArialMT-114"/>
      <use x="489.070312" xlink:href="#ArialMT-97"/>
      <use x="544.685547" xlink:href="#ArialMT-103"/>
      <use x="600.300781" xlink:href="#ArialMT-101"/>
     </g>
    </g>
   </g>
  </g>
 </g>
 <defs>
  <clipPath id="paa7fa46646">
   <rect height="161.7949" width="364.63815" x="64.39185" y="16.92"/>
  </clipPath>
 </defs>
</svg>
